<?xml version="1.0" encoding="utf-8"?>
<!-- Generator: Adobe Illustrator 19.0.0, SVG Export Plug-In . SVG Version: 6.00 Build 0)  -->
<!DOCTYPE svg PUBLIC "-//W3C//DTD SVG 1.1//EN" "http://www.w3.org/Graphics/SVG/1.1/DTD/svg11.dtd">
<svg version="1.1" id="Layer_1" xmlns="http://www.w3.org/2000/svg" xmlns:xlink="http://www.w3.org/1999/xlink" x="0px" y="0px"
	 width="90px" height="70px" viewBox="0 0 90 70" enable-background="new 0 0 90 70" xml:space="preserve">
<g>
	<path d="M31.06,54.02c-0.06,0.1-0.13,0.17-0.22,0.22"/>
	<path d="M33.06,38.39c0.23,0,0.42-0.19,0.42-0.42c0-0.23-0.19-0.42-0.42-0.42c-0.23,0-0.42,0.19-0.42,0.42
		C32.64,38.2,32.83,38.39,33.06,38.39L33.06,38.39z"/>
	<path d="M52.43,20.73L52.43,20.73l-15.06-0.01v0.01h0l0.01,12.16c0,1.17,0.5,2.2,1.18,2.52l5.79,3.46
		c0.13,0.14,0.32,0.24,0.53,0.24c0.18,0,0.35-0.07,0.47-0.18l5.88-3.52c0.69-0.32,1.18-1.34,1.18-2.52L52.43,20.73L52.43,20.73
		L52.43,20.73z M42.37,24.25h-1.3v-3.12h1.3V24.25L42.37,24.25z M41.43,25.34l0.19-0.19l-0.12-0.21l0.24,0.03l0.15-0.26l0.14,0.25
		l0.25-0.02l-0.12,0.21l0.19,0.19l-0.24,0.04v0.26l-0.22-0.17l-0.22,0.17v-0.26L41.43,25.34L41.43,25.34z M37.79,29.21v-2.96h1.58
		v2.96H37.79L37.79,29.21z M38.05,24.93l0.24,0.03l0.15-0.26l0.14,0.25l0.25-0.02l-0.11,0.21l0.19,0.19l-0.24,0.04v0.26l-0.22-0.17
		l-0.22,0.17v-0.26l-0.24-0.04l0.18-0.19L38.05,24.93L38.05,24.93z M39.84,27.94l0.24,0.03l0.15-0.26l0.14,0.25l0.25-0.02
		l-0.11,0.21l0.19,0.19l-0.24,0.04v0.26l-0.22-0.17l-0.22,0.17v-0.26l-0.24-0.04l0.19-0.19L39.84,27.94L39.84,27.94z M40.89,25.56
		c-0.01-0.08-0.11-0.1-0.16-0.1c-0.14,0-0.2,0.23-0.31,0.24c-0.09,0-0.15,0.01-0.15-0.09c0-0.08,0.18-0.14,0.25-0.21
		c-0.98,0-1,0.45-1.15,0.45c-0.26,0,0.21-0.47,0.35-0.61c-0.2-0.03-0.31-0.28-0.53-0.4c0.1-0.15,0.16-0.08,0.29,0.02
		c0-0.1,0.08-0.22,0.3-0.22c0.44,0,0.31,0.42,0.38,0.42c0.07,0,0-0.42,0.29-0.42c0.43,0,0.97,1.11,0.48,1.11
		C40.72,25.75,40.89,25.59,40.89,25.56L40.89,25.56z M39.77,22.31l0.19-0.19l-0.12-0.21l0.24,0.03l0.15-0.26l0.14,0.25l0.25-0.02
		l-0.11,0.21l0.19,0.19l-0.24,0.04v0.26l-0.22-0.17l-0.22,0.17v-0.26L39.77,22.31L39.77,22.31z M39.37,21.14v3.12h-1.58v-3.12H39.37
		L39.37,21.14z M42.37,37.21l-3.6-2.15c-0.6-0.41-0.9-1.13-0.98-2.01v-3.42h4.58V37.21L42.37,37.21z M41.07,29.21v-2.96h1.3v2.96
		H41.07L41.07,29.21z M47.01,37.45l-1.67,0.99h-0.03c-0.12,0.09-0.27,0.15-0.44,0.15c-0.17,0-0.32-0.06-0.44-0.16l-1.65-0.99v-7.83
		h4.23V37.45L47.01,37.45z M47.01,29.21h-4.23v-8.08h4.23V29.21L47.01,29.21z M52.01,33.05c-0.08,0.87-0.38,1.6-0.98,2.01l-3.6,2.15
		v-7.58h4.58V33.05L52.01,33.05z M52.01,29.21h-4.58v-8.08h4.58V29.21L52.01,29.21z"/>
	<path d="M42.13,32.41c-0.02-0.05-0.57,0.18-0.42,0.17c0.02-0.16,0.32-0.5,0.46-0.62c-0.03-0.19-0.27-0.02-0.53,0.12
		c0.86-1.23,0.31-0.73-0.17-0.64c0.77-0.82,0.56-0.81,0-0.55c0.44-0.35,0.54-0.77,0.47-0.89c-0.42,0.55-0.8,0.47-0.8,0.98
		c0,0.34-0.12,0.89-0.3,1.08c-0.22,0.24-0.05-0.91-0.64-0.91c-0.19,0-0.63-0.01-0.77,0.22c0.12,0,0.3,0.31,0.3,0.43
		c0,0.12,0.11,0.46-0.09,0.46c-0.2,0-0.43-0.42-0.43-0.63c0-0.2-0.01-0.15-0.01-0.45c0-0.49-0.79-1.17-1.11-1.17
		c0,0.34,0.44,0.42,0.44,0.85c-0.19,0-0.46-0.35-0.46-0.13c0,0.22,0.28,0.26,0.28,0.45c0,0.19-0.32-0.07-0.32,0.13
		c0,0.18,0.18,0.15,0.22,0.32c-0.13-0.04-0.25-0.02-0.27,0.05c-0.02,0.06,0.04,0.13,0.14,0.19c-0.05,0.04-0.09,0.14-0.09,0.43
		c0,0.96,0.6,1.41,1.05,1.41c0.31,0,0.27-0.22,0.3-0.33c0.01,0.16,0.17-0.08,0.17,0.2c0,0.3-0.31,0.17-0.31,0.42
		c0,0.34,0.48-0.01,0.48,0.37c0,0.46-0.06,0.45-0.06,0.63c0,0.12,0.5-0.17,0.47-0.22c0.12,0.04,0.12,0.4,0.34,0.39
		c0.15-0.01,0.18-0.37,0.29-0.4c-0.07,0.02,0.46,0.34,0.46,0.18c0-0.45-0.18-0.26-0.18-0.56c0-0.28,0.62-0.23,0.52-0.37
		c-0.08-0.12-0.14-0.05-0.2-0.26c0.01,0.04-0.49-0.71,0.1-0.32C42.09,33.83,42.16,32.48,42.13,32.41L42.13,32.41z"/>
	<path d="M58.2,35.59c0.27,0,0.5-0.2,0.5-0.44c0-0.24-0.22-0.44-0.5-0.44c-0.27,0-0.5,0.2-0.5,0.44
		C57.7,35.4,57.92,35.59,58.2,35.59L58.2,35.59z"/>
	<path d="M56.19,36.78c0.27,0,0.5-0.2,0.5-0.44s-0.22-0.44-0.5-0.44c-0.27,0-0.5,0.2-0.5,0.44S55.92,36.78,56.19,36.78L56.19,36.78z
		"/>
	<path d="M32.39,39.53c0.27,0,0.5-0.2,0.5-0.44s-0.22-0.44-0.5-0.44c-0.27,0-0.5,0.2-0.5,0.44S32.11,39.53,32.39,39.53L32.39,39.53z
		"/>
	<path d="M33.93,39.66c0.27,0,0.5-0.2,0.5-0.44c0-0.24-0.22-0.44-0.5-0.44c-0.27,0-0.5,0.2-0.5,0.44
		C33.44,39.47,33.66,39.66,33.93,39.66L33.93,39.66z"/>
	<path d="M76.79,18.89c0.74,0.87,0.89,2.28,0.37,3.28c-0.29-0.03-0.24-0.4-0.29-0.61c-0.53-0.98-0.95-2.22-0.47-3.33
		C76.74,18.28,76.61,18.7,76.79,18.89L76.79,18.89z"/>
	<path d="M13.9,20.08c-0.16,0.63-0.16,1.51,0,2.09c-0.13,0.13-0.11-0.13-0.24-0.11c-1.02-0.74-0.55-2.2-0.81-3.23
		c0.05-0.08,0.18-0.11,0.26-0.05C13.58,19.1,13.8,19.55,13.9,20.08L13.9,20.08z"/>
	<path d="M79.05,20.16c0.16,0.29-0.13,0.58-0.34,0.71c-0.24,0.05-0.5-0.08-0.66-0.29c-0.08-0.29,0.08-0.56,0.32-0.69
		C78.63,19.87,78.89,19.92,79.05,20.16L79.05,20.16z"/>
	<path d="M12.3,21.32c-0.05,0.24-0.13,0.48-0.34,0.58c-0.16,0-0.39,0-0.5-0.13c-0.16-0.13-0.18-0.37-0.11-0.56
		c0.11-0.18,0.32-0.21,0.5-0.24C12.04,21.06,12.22,21.11,12.3,21.32L12.3,21.32z"/>
	<path d="M80.07,21.77c0.05,0.16,0.05,0.26,0,0.42c-0.18,0.24-0.45,0.34-0.71,0.24c-0.18-0.11-0.24-0.29-0.29-0.45
		c0.05-0.21,0.26-0.4,0.45-0.48C79.76,21.51,79.92,21.64,80.07,21.77L80.07,21.77z"/>
	<path d="M78.58,21.8c0.21,0.1,0.05,0.37,0.03,0.53c-0.13,0.13-0.31,0.34-0.55,0.26c-0.13-0.13-0.29-0.13-0.34-0.32
		c0-0.26,0.1-0.53,0.37-0.61C78.29,21.61,78.42,21.72,78.58,21.8L78.58,21.8z"/>
	<path d="M76.66,22.19c0,0.29,0.03,0.66-0.32,0.71c-0.32,0.11-0.52-0.16-0.6-0.37c-0.03-0.26,0.13-0.53,0.39-0.64
		C76.34,21.9,76.53,22.04,76.66,22.19L76.66,22.19z"/>
	<path d="M15.16,22.33c0.08,0.26-0.18,0.42-0.34,0.56c-0.18,0.05-0.42-0.11-0.53-0.29c-0.18-0.18,0.05-0.34,0.11-0.5
		C14.66,21.85,15.06,22.04,15.16,22.33L15.16,22.33z"/>
	<path d="M13.58,22.41c0,0.21-0.1,0.42-0.29,0.5c-0.21,0.08-0.42-0.08-0.53-0.24c-0.13-0.26,0.03-0.5,0.24-0.61
		C13.3,21.96,13.48,22.22,13.58,22.41L13.58,22.41z"/>
	<path d="M70.3,22.51c0.26,0.56,0.47,1.22,0.53,1.91c-0.11,0.5,0.08,1.16-0.29,1.51c-0.37-0.13-0.39-0.58-0.63-0.82
		c-0.47-0.93-0.05-2.01,0.11-2.91C70.22,22.12,70.22,22.38,70.3,22.51L70.3,22.51z"/>
	<path d="M12.35,22.83c0.08,0.32-0.16,0.48-0.34,0.66c-0.32,0.08-0.53-0.16-0.66-0.37c-0.03-0.26,0.13-0.53,0.34-0.63
		C11.96,22.46,12.22,22.59,12.35,22.83L12.35,22.83z"/>
	<path d="M74.45,23.6c0.34,0.77,0.37,1.69,0.13,2.54l-0.16,0.13c-0.37-0.71-0.89-1.38-1.08-2.14c0-0.56,0.11-1.06,0.32-1.51
		c0.18-0.13,0.29,0.03,0.37,0.19C74.06,23.09,74.19,23.44,74.45,23.6L74.45,23.6z"/>
	<path d="M77.76,23.12c-0.03,0.26-0.13,0.56-0.4,0.64c-0.26,0.05-0.52-0.03-0.6-0.32c-0.08-0.26,0.08-0.5,0.29-0.63
		C77.34,22.64,77.63,22.91,77.76,23.12L77.76,23.12z"/>
	<path d="M13.61,23.94c0,0.21-0.18,0.45-0.39,0.5c-0.21,0.16-0.37-0.11-0.55-0.18c-0.08-0.21-0.13-0.4,0-0.61
		c0.08-0.16,0.26-0.16,0.42-0.21C13.32,23.57,13.56,23.68,13.61,23.94L13.61,23.94z"/>
	<path d="M14.77,23.81c0.11,0.26-0.18,0.4-0.29,0.53c-0.32,0.11-0.47-0.13-0.6-0.32c-0.05-0.26,0.1-0.42,0.29-0.58
		C14.48,23.36,14.64,23.57,14.77,23.81L14.77,23.81z"/>
	<path d="M78.5,23.73c-0.03,0.34-0.55,0.69-0.6,1.03c-0.29,0.71-0.92,1.24-1.63,1.48c-0.16,0.13-0.37,0.32-0.6,0.34
		c-0.05-0.53,0.42-1.01,0.71-1.48C76.92,24.39,77.68,23.94,78.5,23.73L78.5,23.73z"/>
	<path d="M13.09,24.84c0.39,0.45,0.6,0.85,1.08,1.24c0.03,0.11-0.05,0.27-0.18,0.27c-1.29-0.08-2.15-1.4-2.78-2.33
		c0.08-0.29,0.42-0.05,0.6-0.08C12.25,24.29,12.74,24.39,13.09,24.84L13.09,24.84z"/>
	<path d="M78.87,25.21c-0.05,1.14-0.6,2.3-1.63,2.86c-0.29,0.1-0.61,0.4-0.89,0.21c0.55-1.14,1.39-2.06,2.31-3.07H78.87L78.87,25.21
		z"/>
	<path d="M73.82,25.98c0.08,0.4-0.13,0.64-0.45,0.77c-0.29,0.03-0.47-0.21-0.6-0.42c-0.03-0.26,0.13-0.5,0.37-0.58
		c0.08-0.08,0.21-0.08,0.31-0.08C73.61,25.71,73.69,25.85,73.82,25.98L73.82,25.98z"/>
	<path d="M11.64,26.22c0.5,0.34,0.95,0.82,1.42,1.24c-0.34,0.24-0.76,0.03-1.16,0.03c-0.89-0.32-1.5-1.08-2.42-1.35
		c0.03-0.29,0.37-0.18,0.55-0.26C10.62,25.82,11.09,26.08,11.64,26.22L11.64,26.22z"/>
	<path d="M39.78,18.38c-1.47-0.58-2.44,0.95-3.94,0.77c-0.18,0.11-0.13,0.29-0.24,0.42c-0.08,0.08-0.21,0.03-0.29-0.03
		c-0.08-0.64-0.29-1.22-0.37-1.83c-0.16-0.26-0.08-0.63-0.21-0.9c-0.84-2.3,2.05-0.56,2.63-1.9c0.5-1.16-0.97-1.3-1.42-2.12v-0.34
		c-0.42-0.42-0.87-0.56-1.13-1.11c0.18-0.66,0.26-1.38,0.08-2.04c-0.03-0.16-0.13-0.37-0.37-0.29c-0.5,0.69-0.87,1.24-1.34,1.91
		c-0.5-0.37-0.97-0.85-1.55-1.17c-0.39-0.05-0.76-0.45-1.21-0.29c-0.08,0.16,0,0.29,0.08,0.4c0.03,1.03,0.55,1.85,1.29,2.59
		l0.08,0.4c-0.47,1.08-0.34,2.33-0.47,3.49c-1.18,3.02-3.1,5.93-5.7,8.02c-1.5,1.69-3.28,3.33-3.52,5.66
		c-0.08,0.37,0.05,0.82-0.24,1.08c-0.87-0.32-1.73-0.74-2.44-1.3c-1.21-0.85-2.94-0.74-3.73-2.28c-0.32-0.61,0.08-1.22,0.37-1.67
		c0.89-0.85,0.76-2.36,0.29-3.39c-0.1-0.03-0.13,0.1-0.21,0.13c-0.08,1.56-1.31,2.65-0.84,4.37c0.11,0.5,0.37,0.82,0.5,1.3
		c-0.19-0.05-0.45-0.05-0.6-0.13c-0.58-0.08-1.16-0.32-1.76-0.24c-1.21,0.56-2.86-0.13-3.84,0.98c-0.16,0.03-0.37,0.05-0.31,0.29
		c0.58,0,1.13,0.16,1.71,0.13c0.92,0.16,1.52-0.61,2.15-0.95h0.16c0.26-0.27,0.71-0.11,1.05-0.16c1.65,0.19,2.94,0.98,4.31,1.8v0.11
		c-0.53,0.24-1.13,0.4-1.66,0.69c-0.6,0.45-1.29,1.03-1.47,1.77c-0.42,0.66,0.13,1.24,0.39,1.8c0.03,0.26,0.05,0.58,0.29,0.69
		c0.84-0.9,0.05-2.01,0.18-3.04c0.21-0.79,0.95-1.16,1.71-1.38c1.5-0.64,2.57,0.58,3.78,1.27c-0.03,1.22,0.13,2.38-0.13,3.57
		c-0.37,0.13-0.84,0.21-1.24,0.19c-2.08,0.16-3.7,1.3-5.57,1.93c-0.84,0.29-1.84,0.27-2.68,0.58c0.66,0.18,1.34-0.05,2.02-0.08
		c2.57-0.37,4.54-2.35,7.33-2.01l0.05,0.08c-0.32,0.66-0.73,1.22-1.23,1.72c-0.08-0.29-0.11-0.53-0.37-0.69
		c-0.21-0.11-0.45,0-0.6,0.21c-0.08,0.13-0.08,0.29,0,0.4c0.13,0.24,0.34,0.29,0.58,0.37c-0.05,0.24-0.34,0.34-0.5,0.56
		c-0.74,1.24-2.23,0.74-3.1,1.61c-0.13,0.19-0.6,0.29-0.39,0.58c1,0.11,1.97-0.16,2.71-0.69c0.97-1.08,2-2.12,2.97-3.15
		c0.16,0.85-0.08,1.72-0.58,2.41c-0.24-0.13-0.42-0.32-0.71-0.4c-0.26,0.05-0.45,0.32-0.47,0.53c0.1,0.18,0.21,0.4,0.39,0.53
		c-0.89,0.63-2.02,0.69-3.05,0.98c-1.92,0.24-3.78,0.4-5.73,0.42c-0.92-0.05-1.97,0.26-2.84,0c-1,0.19-2.08-0.13-2.89,0.42
		c-0.11,0.13,0.03,0.27,0.03,0.4c1.21,0.79,2.86,0.16,4.23,0.4h10.35c0.76-0.03,1.52-0.05,2.13-0.4c1.34-0.77,2.08-2.14,2.76-3.49
		c0.26-0.48,0.45-1.03,0.55-1.59c0.26-0.9,1.08-1.54,1.97-1.61c0.13,1.38-0.13,2.75-0.45,4.02c-0.16,0.85-0.71,1.67-0.37,2.57
		c0.08,0.42,0.53,0.42,0.87,0.48c3.18-0.05,6.36-0.19,9.72,0.05c0.6,0.1,1.13,0.29,1.79,0.26c0.05-0.08,0.24-0.11,0.16-0.26
		c-0.08-0.29-0.29-0.66-0.63-0.74c-0.05-0.16-0.29-0.11-0.37-0.21c-1.68-0.95-3.7-0.45-5.67-0.42c-1.02,0.11-2.05,0.29-2.92-0.29
		c-0.39-0.48-0.11-1.98-0.11-1.98c0-0.6,1.45-4.76,1.63-5.11c0.05-0.4,0.21-0.77,0.16-1.22c0.21-0.53,0.16-1.22,0.16-1.8
		c0.1-0.85,0.53-1.64,0.81-2.46c0.16-0.4,0.29-0.82,0.45-1.22c0.16-0.5,0.21-0.98,0.53-1.38c0.86,0.54,1.69,0.53,2.11,1.5l0.36,2.2
		c0,0.13,0.1,0.4,0.29,0.24c0.68-0.45,0.47-1.46,0.47-2.14c0.16-0.82-0.42-1.22-0.66-1.93c-0.18-0.13-0.49-0.76-0.49-0.76
		c-0.11-0.58-1.38-0.98-1.09-1.7c0.16-0.61,0.31-1.16,0.89-1.51c0.08,0.06,0.12,0.12,0.13,0.19l0.32-0.22l0.03-2.21
		c0.85,0,2.12,0.11,2.99,0.11c0.24,0.08,0.42,0.26,0.68,0.29l0.21-0.29l2.13-0.42C41.18,19.42,40.64,18.38,39.78,18.38L39.78,18.38z
		"/>
	<path d="M42.09,19.32c0.06-0.01,0.13-0.02,0.2-0.04L42.09,19.32L42.09,19.32z"/>
	<path d="M19.21,26.69c0.03,0.32-0.16,0.5-0.39,0.61c-0.21-0.08-0.37-0.11-0.5-0.32c-0.11-0.29,0.16-0.5,0.37-0.61
		C18.89,26.43,19.15,26.45,19.21,26.69L19.21,26.69z"/>
	<path d="M17.5,26.69c0.16,0.16,0.18,0.42,0.1,0.61c-0.18,0.16-0.47,0.29-0.63,0.08c-0.16-0.16-0.31-0.34-0.18-0.56
		C16.97,26.64,17.29,26.48,17.5,26.69L17.5,26.69z"/>
	<path d="M54.07,26.98c0.01,0.01,0.02,0.03,0.02,0.04"/>
	<path d="M74.08,27.43c0.11,0.29-0.13,0.5-0.34,0.61c-0.26-0.08-0.6-0.13-0.6-0.48c0.03-0.21,0.21-0.34,0.39-0.4
		C73.77,27.09,73.98,27.27,74.08,27.43L74.08,27.43z"/>
	<path d="M75.48,27.38c0.08,0.13,0.26,0.34,0.05,0.48c-0.11,0.08-0.18,0.11-0.26,0.21c-0.29,0.05-0.55-0.05-0.63-0.32
		c-0.05-0.29,0.18-0.42,0.39-0.56C75.21,27.14,75.35,27.27,75.48,27.38L75.48,27.38z"/>
	<path d="M10.91,27.7c-0.1,0.32-0.37,0.45-0.71,0.34c-0.08-0.08-0.16-0.21-0.21-0.34c0.03-0.19,0.08-0.37,0.29-0.45
		C10.59,27.27,10.83,27.41,10.91,27.7L10.91,27.7z"/>
	<path d="M19.76,28.15c-0.03,0.21-0.26,0.4-0.45,0.5c-0.26,0.03-0.45-0.19-0.58-0.37c0-0.21,0.1-0.48,0.31-0.53
		C19.34,27.65,19.65,27.86,19.76,28.15L19.76,28.15z"/>
	<path d="M18.21,27.96c0.08,0.08,0.16,0.29,0.08,0.42c-0.16,0.13-0.39,0.37-0.66,0.21c-0.16-0.13-0.34-0.24-0.29-0.5
		c0.11-0.11,0.24-0.26,0.4-0.32C17.95,27.73,18.05,27.86,18.21,27.96L18.21,27.96z"/>
	<path d="M79.5,28.28c0,0.21-0.21,0.42-0.34,0.5c-0.21,0.08-0.45,0.03-0.58-0.13c-0.16-0.05-0.11-0.26-0.11-0.4
		c0.13-0.18,0.32-0.29,0.5-0.34C79.21,27.96,79.36,28.12,79.5,28.28L79.5,28.28z"/>
	<path d="M81.18,28.52c-0.08,0.24-0.26,0.45-0.5,0.48c-0.16-0.03-0.45-0.08-0.39-0.32c0-0.19,0.11-0.37,0.24-0.42
		C80.78,28.12,81.1,28.25,81.18,28.52L81.18,28.52z"/>
	<path d="M13.9,28.89c0.05,0.32-0.05,0.53-0.32,0.63c-0.18,0.11-0.37-0.03-0.5-0.13c-0.13-0.13-0.24-0.34-0.13-0.53
		c0.05-0.24,0.29-0.19,0.45-0.29C13.64,28.6,13.77,28.7,13.9,28.89L13.9,28.89z"/>
	<path d="M15.19,29.13c0.08,0.21-0.16,0.29-0.21,0.45c-0.13,0.08-0.32,0.16-0.47,0.05c-0.18-0.16-0.39-0.4-0.21-0.63
		C14.5,28.6,15.06,28.81,15.19,29.13L15.19,29.13z"/>
	<path d="M77.95,28.99c0.03,0.26-0.21,0.45-0.37,0.61c-0.24,0.05-0.47-0.11-0.53-0.32c-0.03-0.21,0.11-0.37,0.29-0.5
		C77.58,28.76,77.81,28.78,77.95,28.99L77.95,28.99z"/>
	<path d="M80.1,29.42c-0.05,0.24-0.03,0.5-0.29,0.66c-0.21,0.05-0.47,0.03-0.63-0.11c-0.16-0.13-0.18-0.37-0.1-0.56
		c0.13-0.21,0.37-0.37,0.63-0.32C79.89,29.21,79.94,29.34,80.1,29.42L80.1,29.42z"/>
	<path d="M12.9,29.97c0.1,0.21-0.13,0.26-0.21,0.37c-0.18,0.11-0.37,0.03-0.53-0.05c-0.18-0.11-0.1-0.37-0.08-0.5
		C12.32,29.34,12.8,29.66,12.9,29.97L12.9,29.97z"/>
	<path d="M78.45,30.48c0.1,0.03,0.05,0.19,0.03,0.24c-0.63,0.32-1.58,0.4-2.13-0.11c-0.32-0.26-0.71-0.37-1.05-0.58
		c0.13-0.34,0.6-0.32,0.95-0.4C77,29.73,77.6,30.45,78.45,30.48L78.45,30.48z"/>
	<path d="M14.16,30.24c0.05,0.21-0.1,0.29-0.16,0.45c-0.1,0.16-0.31,0.11-0.45,0.05c-0.24-0.16-0.34-0.45-0.18-0.66
		C13.66,29.79,14.01,29.95,14.16,30.24L14.16,30.24z"/>
	<path d="M16.47,30.4c0.11,0.24-0.05,0.45-0.26,0.58c-0.19,0.11-0.34-0.05-0.5-0.08c-0.13-0.19-0.37-0.4-0.13-0.61
		C15.82,29.89,16.29,30.11,16.47,30.4L16.47,30.4z"/>
	<path d="M46.85,31.52c-0.05,0.53-0.92-0.08-0.8,0.63c0.13,0.5,0.22,1.11,0.52,1.48c0.25,0.35,0.12,0.9,0.1,1.33
		c-0.22,0.38-0.6,0.65-1,0.85c-0.75-0.08-1.85,0.38-2.2-0.55c-0.15-0.4-0.42-0.8-0.42-1.26c0.08-0.05,0.18-0.05,0.25-0.13
		c0-0.18-0.2-0.28-0.17-0.45c0.85-0.15-0.35-0.9,0.37-0.96c0.6,0.63,1.57,0.43,2.1,1.11c0.13,0.1,0.22,0.25,0.38,0.33
		c-0.1-0.63-0.4-1.26-0.5-1.94c-0.08-0.35,0.05-0.68,0.3-0.88C46.22,30.74,46.6,31.24,46.85,31.52L46.85,31.52z"/>
	<path d="M18.79,31.35c0.08,0.26-0.13,0.42-0.29,0.56c-0.24,0.11-0.37-0.16-0.47-0.29c-0.08-0.26,0.11-0.4,0.26-0.53
		C18.47,31.08,18.68,31.16,18.79,31.35L18.79,31.35z"/>
	<path d="M35,31.61c0.31,1.03,0.21,2.09-0.32,2.96c-0.03,0.21,0.05,0.56-0.24,0.53c-0.71-0.98-0.18-2.35,0.11-3.39
		C34.6,31.46,34.92,31.35,35,31.61L35,31.61z"/>
	<path d="M57.48,32.12c0.37,0.74,0.39,1.72,0.05,2.46l-0.21,0.21c-0.29-0.61-0.53-1.22-0.6-1.88c0.13-0.48,0.29-0.9,0.32-1.4
		C57.4,31.43,57.38,31.91,57.48,32.12L57.48,32.12z"/>
	<path d="M20.84,32.41c-0.16,0.32-0.6,0.4-0.89,0.61c-0.63,0.48-1.55,0.58-2.34,0.45c0.68-0.95,1.73-1.51,2.99-1.24
		C20.65,32.33,20.78,32.28,20.84,32.41L20.84,32.41z"/>
	<path d="M10.04,33.36c0.97,0.69,1.23,1.64,1.81,2.59c0.08,0.11,0.34,0.13,0.24,0.34c-0.21,0.16-0.42-0.16-0.71-0.11
		c-1-0.45-1.63-1.56-1.6-2.72C9.78,33.36,9.93,33.36,10.04,33.36L10.04,33.36z"/>
	<path d="M56.46,34.18c0.03,0.26-0.03,0.53-0.24,0.61c-0.29,0.08-0.53-0.08-0.6-0.32c-0.08-0.19,0.08-0.29,0.13-0.42
		C55.96,33.84,56.33,33.94,56.46,34.18L56.46,34.18z"/>
	<path d="M67.54,35.58c0-0.5,0.13-0.98,0.18-1.46c0.08-0.16,0.13-0.34,0.11-0.56c0.63-0.85,1.92-0.58,2.92-0.5
		c0.39,0.21,0.89,0.19,1.31,0.29c0.18-0.13,0.45-0.16,0.66-0.13c0.84-0.45,0.29-1.43,0.34-2.2l-0.32-0.79
		c-0.08-0.16-0.16-0.34-0.21-0.53c-0.16-0.19-0.26-0.53-0.42-0.71c-0.45-1.16-1.31-1.83-2.05-2.75c-1.34-1.75-3.44-2.73-5.54-3.41
		c-2.08-0.71-4.18,0.21-6.04,0.87c-0.58-0.16-0.87-0.61-1.02-1.11c-0.11-1,0.1-1.98,0.5-2.8c0.08-0.66,0.52-1.16,0.71-1.77
		c0.47-1.48,0.97-2.94,1.08-4.55c0.05-0.98-0.68-1.67-1.42-2.09c-0.5-0.13-1.08-0.11-1.44,0.29c-0.34,0.71-1.08,1.19-1.71,1.53
		c-0.05,0.45,0.5,0.16,0.68,0.32c0.58,0.11,1.24-0.08,1.71,0.29c0.05,1.06-0.55,1.93-1.1,2.73c-0.89,1.32-1.84,2.67-2.39,4.13
		l-0.1-0.11l0.13,6.47c0.84,1.39,1.88,2.98,3.45,3.51c0.84,0.69,1.89,1.51,3.02,0.9c0.6-0.18,0.66,0.66,0.95,1.01
		c0.32,0.98-0.39,1.67-0.45,2.57l-0.68,1.46c-0.79,1.53-1.5,3.17-2.71,4.47c-0.39,0-0.63,0.42-1.02,0.45
		c-0.21,0.29-0.63,0.08-0.89,0.19c-0.81,0.34-1.97,0.13-2.52,0.9c0.05,0.08,0.13,0.11,0.21,0.13c1.6,0.03,3.39,0.13,5.1,0.05
		c0.21-0.08,0.39-0.27,0.42-0.5c-0.24-0.45,0.08-0.85,0.29-1.19c0.13-0.64,0.55-1.03,0.74-1.64c0.55-1.08,1.18-2.14,1.79-3.23
		l0.81-1.32c0.18-0.45,0.5-1.01,0.81-1.48c0.21-0.21,0.32-0.45,0.47-0.71c0.03-0.27-0.1-0.37-0.26-0.56
		c0.18-0.19,0.47-0.13,0.71-0.19c0.66,0.4,1.34,1.03,1.47,1.75l0.24,0.69l0.11,0.32l-0.05,0.87l0.11,0.82
		c0.13,1.27-0.11,2.57-0.24,3.84c-0.45,1.53-2.21,1.38-3.47,1.72c-0.31,0.21-0.92,0.11-0.92,0.63c1.52,0.32,3.31,0.13,4.94,0.11
		c0.26-0.11,0.32-0.34,0.45-0.58c0.05-0.34,0.39-0.64,0.29-1c-0.29-0.37-0.03-0.95-0.1-1.46c0.05-0.13,0.05-0.32,0-0.5
		c0.21-0.77,0.16-1.69,0.31-2.43L67.54,35.58L67.54,35.58z"/>
	<path d="M80.47,34.55c-0.84,1.19-1.73,2.54-3.2,2.96c-0.11,0-0.21,0.05-0.26-0.08c0.89-0.95,1.37-2.43,2.76-2.78
		C79.97,34.55,80.26,34.44,80.47,34.55L80.47,34.55z"/>
	<path d="M8.75,35.85c-0.13,0.11-0.03,0.34-0.26,0.37c-0.21,0.11-0.45-0.03-0.55-0.24c-0.11-0.26,0.13-0.53,0.34-0.58
		C8.49,35.5,8.7,35.58,8.75,35.85L8.75,35.85z"/>
	<path d="M16.32,36.22c0.08,0.24-0.18,0.24-0.32,0.29c-1.1,0.4-2.23,0.03-3.02-0.77c0-0.11,0-0.21,0.11-0.24
		C14.16,35.77,15.42,35.56,16.32,36.22L16.32,36.22z"/>
	<path d="M10.2,35.87c0.05,0.11,0.08,0.29,0.05,0.4c-0.16,0.24-0.39,0.29-0.66,0.24c-0.16-0.08-0.24-0.19-0.34-0.34
		c0.03-0.26,0.24-0.42,0.45-0.5C9.91,35.69,10.07,35.74,10.2,35.87L10.2,35.87z"/>
	<path d="M34.81,36.01c0.05,0.24-0.16,0.4-0.31,0.5c-0.24,0.05-0.45-0.05-0.55-0.21c-0.08-0.18,0-0.45,0.18-0.5
		C34.37,35.74,34.73,35.77,34.81,36.01L34.81,36.01z"/>
	<path d="M81.47,36.11c0.08,0.26-0.16,0.4-0.34,0.56c-0.16,0.08-0.34,0-0.5-0.08c-0.03-0.13-0.18-0.24-0.13-0.42
		c0.1-0.24,0.34-0.34,0.6-0.32C81.23,35.95,81.34,35.98,81.47,36.11L81.47,36.11z"/>
	<path d="M83.2,36.01c0.16,0.24,0.03,0.42-0.11,0.61c-0.1,0.19-0.32,0.24-0.47,0.16c-0.16-0.16-0.37-0.24-0.39-0.48
		c0-0.21,0.24-0.37,0.39-0.45C82.89,35.74,82.99,36.01,83.2,36.01L83.2,36.01z"/>
	<path d="M7.65,36.77c0.03,0.19-0.13,0.29-0.18,0.45c-0.13,0.05-0.26,0.16-0.42,0.11c-0.18-0.08-0.31-0.24-0.39-0.42
		c0.05-0.24,0.21-0.45,0.47-0.53C7.33,36.43,7.57,36.54,7.65,36.77L7.65,36.77z"/>
	<path d="M62.97,36.77c0.05,0.11,0.03,0.24,0.03,0.34c-0.16,0.21-0.37,0.4-0.63,0.26c-0.16-0.16-0.34-0.32-0.26-0.56
		C62.32,36.54,62.76,36.43,62.97,36.77L62.97,36.77z"/>
	<path d="M11.88,37.17c-0.05,0.19-0.13,0.37-0.37,0.4c-0.24,0.03-0.32-0.19-0.45-0.29c0-0.24-0.03-0.48,0.21-0.61
		C11.59,36.56,11.88,36.83,11.88,37.17L11.88,37.17z"/>
	<path d="M9.36,37.22c0.08,0.26-0.11,0.45-0.26,0.58c-0.31,0.11-0.58-0.13-0.71-0.37c0.03-0.24,0.21-0.53,0.47-0.61
		C9.09,36.83,9.22,37.09,9.36,37.22L9.36,37.22z"/>
	<path d="M64.71,37.17c0.05,0.26-0.03,0.53-0.29,0.63c-0.32,0.11-0.58-0.16-0.71-0.37c0.13-0.21,0.16-0.5,0.47-0.56
		C64.42,36.88,64.57,36.99,64.71,37.17L64.71,37.17z"/>
	<path d="M10.59,37.28c0.08,0.18-0.08,0.26-0.13,0.4c-0.13,0-0.21,0.16-0.37,0.11c-0.11-0.13-0.32-0.19-0.34-0.37
		c-0.03-0.27,0.16-0.4,0.34-0.5C10.35,36.88,10.51,37.06,10.59,37.28L10.59,37.28z"/>
	<path d="M80.02,37.49c-0.08,0.21-0.24,0.32-0.45,0.42c-0.21,0.05-0.34-0.13-0.5-0.21c-0.13-0.11-0.08-0.34-0.03-0.48
		C79.31,36.77,80.02,36.99,80.02,37.49L80.02,37.49z"/>
	<path d="M82.02,37.59c-0.08,0.29-0.37,0.42-0.63,0.45c-0.24-0.11-0.5-0.29-0.32-0.61c0.11-0.11,0.16-0.21,0.32-0.24
		C81.7,37.09,81.94,37.33,82.02,37.59L82.02,37.59z"/>
	<path d="M69.54,37.78c0.13,0.34-0.18,0.45-0.39,0.61c-0.18-0.03-0.34-0.11-0.5-0.21c-0.05-0.29,0.08-0.56,0.37-0.69
		C69.25,37.49,69.38,37.59,69.54,37.78L69.54,37.78z"/>
	<path d="M62.32,38.1c0.13,0.05,0.08,0.24,0.05,0.32c-0.16,0.11-0.37,0.37-0.6,0.21c-0.18-0.11-0.31-0.27-0.26-0.5
		C61.63,37.83,62.18,37.81,62.32,38.1L62.32,38.1z"/>
	<path d="M63.79,38.28c0.03,0.21-0.03,0.32-0.21,0.42c-0.19,0.18-0.39-0.03-0.58-0.08c-0.05-0.11-0.1-0.27-0.03-0.4
		c0.08-0.11,0.21-0.19,0.34-0.21C63.5,38.07,63.71,38.07,63.79,38.28L63.79,38.28z"/>
	<path d="M19.21,38.31c0.16,0.16-0.03,0.34-0.05,0.5c-0.13,0.16-0.42,0.29-0.66,0.13c-0.26-0.11-0.24-0.45-0.18-0.66
		c0.16-0.05,0.16-0.24,0.37-0.24C18.92,38.07,19.05,38.18,19.21,38.31L19.21,38.31z"/>
	<path d="M72.35,38.41c0.05,0.26-0.21,0.37-0.39,0.42c-0.32,0.11-0.47-0.13-0.6-0.34c0-0.16,0.16-0.26,0.21-0.4
		C71.93,37.94,72.17,38.2,72.35,38.41L72.35,38.41z"/>
	<path d="M70.93,38.41c0.1,0.26-0.18,0.4-0.29,0.53c-0.18,0.08-0.42,0.05-0.58-0.11c-0.13-0.08-0.13-0.24-0.13-0.4
		c0.16-0.13,0.24-0.29,0.42-0.34C70.59,38.1,70.83,38.23,70.93,38.41L70.93,38.41z"/>
	<path d="M82.78,38.73c0.05,0.37-0.42,0.19-0.6,0.29c-1.1,0.66-2.52,0.16-3.57-0.24c0.08-0.34,0.47-0.21,0.68-0.34
		c1.13-0.71,2.29,0.16,3.41,0.21L82.78,38.73L82.78,38.73z"/>
	<path d="M10.88,38.41l-0.1,0.18c-0.97,0.58-2.23,0.98-3.39,0.61l-0.11-0.16c0.97-0.71,2.26-0.9,3.52-0.71L10.88,38.41L10.88,38.41z
		"/>
	<path d="M75.03,38.6c0,0.21-0.11,0.4-0.26,0.5c-0.26,0.08-0.6,0-0.68-0.29c-0.08-0.21,0.13-0.42,0.34-0.5
		C74.61,38.31,74.93,38.33,75.03,38.6L75.03,38.6z"/>
	<path d="M15.58,38.71c-0.1,0.21-0.05,0.42-0.32,0.53c-0.26,0.11-0.58-0.13-0.66-0.34c-0.08-0.29,0.13-0.37,0.26-0.5
		C15.19,38.23,15.42,38.47,15.58,38.71L15.58,38.71z"/>
	<path d="M13.72,38.84c0.08,0.19-0.08,0.29-0.13,0.42c-0.13,0.16-0.37,0.13-0.52,0.08c-0.18-0.16-0.37-0.34-0.29-0.63
		c0.16-0.13,0.24-0.21,0.42-0.29C13.43,38.47,13.66,38.57,13.72,38.84L13.72,38.84z"/>
	<path d="M76.87,39.45c-0.03,0.24-0.21,0.42-0.42,0.48c-0.21,0.03-0.39-0.13-0.5-0.26c-0.08-0.16-0.05-0.37,0.11-0.5
		c0.05-0.08,0.24-0.08,0.34-0.13C76.63,39.05,76.82,39.23,76.87,39.45L76.87,39.45z"/>
	<path d="M11.77,39.15c0.08,0.21-0.1,0.29-0.13,0.45c-0.08,0.45-0.37,0.74-0.58,1.14c-0.5,0.61-1.21,0.61-1.92,0.79l-0.1-0.21
		c0.76-0.98,1.58-1.75,2.65-2.22L11.77,39.15L11.77,39.15z"/>
	<path d="M75.56,39.74c0.05,0.32-0.21,0.37-0.39,0.5c-0.24,0-0.42-0.13-0.53-0.32c-0.08-0.29,0.18-0.4,0.34-0.53
		C75.24,39.34,75.48,39.52,75.56,39.74L75.56,39.74z"/>
	<path d="M14.79,39.74c-0.03,0.05,0.03,0.1,0.08,0.13c-0.03,0.29-0.24,0.37-0.39,0.5c-0.24,0-0.42-0.08-0.58-0.26
		c-0.11-0.24,0-0.53,0.26-0.61C14.4,39.47,14.72,39.5,14.79,39.74L14.79,39.74z"/>
	<path d="M80.39,40.53c0.26-0.03,0.31-0.34,0.6-0.4c0.26-0.05,0.5,0.1,0.63,0.29c0.1,0.32-0.13,0.48-0.34,0.61
		c-0.18,0.13-0.58-0.16-0.55,0.19c0.18,0.13,0.34,0.32,0.37,0.53c-0.05,0.11-0.24,0.08-0.32,0.03c-0.76-0.32-1.58-0.85-1.89-1.64
		c-0.1-0.24-0.6-0.42-0.32-0.64C79.34,39.45,79.97,40.05,80.39,40.53L80.39,40.53z"/>
	<path d="M82.91,39.71c0.13,0.13,0.08,0.37-0.03,0.5c-0.13,0.26-0.52,0.16-0.76,0.13c-0.13-0.13-0.26-0.26-0.21-0.48
		c0.11-0.16,0.21-0.26,0.39-0.34C82.54,39.47,82.73,39.58,82.91,39.71L82.91,39.71z"/>
	<path d="M73.38,41.14c0.24,0.29,0.47,0.74,0.58,1.06c-0.05,0.08-0.18,0.05-0.24,0.05c-0.89-0.5-2.05-1.06-2.39-2.12
		c-0.08-0.11-0.29-0.24-0.26-0.42c0.68-0.13,1.34,0.37,1.81,0.74C73.06,40.72,73.27,40.85,73.38,41.14L73.38,41.14z"/>
	<path d="M13.32,40.13c0.1,0.24-0.11,0.42-0.24,0.53c-0.29,0.05-0.45-0.05-0.61-0.21c-0.18-0.29,0.16-0.53,0.37-0.64
		C13.06,39.79,13.19,40,13.32,40.13L13.32,40.13z"/>
	<path d="M76.66,40.74c0.03,0.16-0.18,0.26-0.26,0.37c-0.21,0.03-0.42,0.11-0.6-0.08c-0.05-0.13-0.18-0.34-0.03-0.48
		C76.06,40.19,76.48,40.48,76.66,40.74L76.66,40.74z"/>
	<path d="M83.2,41.11c0.08,0.32-0.16,0.53-0.37,0.66c-0.26,0.08-0.47-0.11-0.63-0.24c-0.13-0.16-0.03-0.32,0-0.5
		c0.18-0.16,0.42-0.29,0.68-0.19C82.99,40.93,83.1,40.98,83.2,41.11L83.2,41.11z"/>
	<path d="M65.02,44.76c0,0.32-0.58,0.24-0.81,0.48c-0.82,0.42-1.79,0.42-2.76,0.4v-0.16C62.39,44.69,63.76,44.39,65.02,44.76
		L65.02,44.76z"/>
	<path d="M26.69,45.9c-0.03,0.24-0.16,0.37-0.4,0.45c-0.18,0-0.37-0.11-0.45-0.26c-0.11-0.32,0.16-0.45,0.34-0.58
		C26.43,45.53,26.64,45.72,26.69,45.9L26.69,45.9z"/>
	<path d="M64.57,46.19c-0.05,0.24-0.13,0.5-0.39,0.61c-0.24,0.05-0.39-0.08-0.58-0.19c-0.13-0.11-0.05-0.29-0.08-0.42
		C63.71,45.72,64.39,45.72,64.57,46.19L64.57,46.19z"/>
	<path d="M69.8,46.3c-0.66,0.42-1.39,0.93-2.26,0.93l-1.42-0.03l-0.13-0.11c0.87-1.06,2.44-1.06,3.81-0.95V46.3L69.8,46.3z"/>
	<path d="M19.5,46.93c0,0.24-0.1,0.42-0.34,0.5c-0.26,0.05-0.45-0.05-0.55-0.24c-0.1-0.24,0-0.48,0.21-0.61
		C19.1,46.4,19.39,46.72,19.5,46.93L19.5,46.93z"/>
	<path d="M20.81,47.2c0.08,0.13-0.05,0.21-0.11,0.34c-0.16,0.08-0.37,0.13-0.5,0c-0.18-0.11-0.24-0.29-0.16-0.45
		c0.08-0.16,0.24-0.13,0.31-0.24C20.55,46.93,20.73,47.01,20.81,47.2L20.81,47.2z"/>
	<path d="M10.75,49.87c-0.26,0.32-0.68-0.08-0.97-0.24c-0.92-0.53-0.89-1.56-1.81-2.17c0.1-0.32,0.34,0.03,0.52-0.03
		c0.16,0.11,0.37,0.21,0.55,0.29C9.93,48.23,10.14,49.08,10.75,49.87L10.75,49.87z"/>
	<path d="M87.32,39.6c-0.42-0.77-1.13-1.08-1.97-1.08c-0.68,0.05-1.18,0.5-1.47,1.08c-0.16,0.58,0.05,1.11,0.5,1.46
		c0.18,0.08,0.42,0.05,0.53-0.13c0.13-0.34-0.24-0.34-0.29-0.61c-0.11-0.37,0.03-0.69,0.29-0.93c0.26-0.26,0.71-0.13,1.02-0.13
		c0.32,0.21,0.63,0.4,0.79,0.77c0.16,0.45,0.16,0.95,0,1.4c-0.29,0.66-0.94,1.19-1.63,1.32c-2.18,0.32-26.11,0.21-26.11,0.21
		c-2.81,0.27-6.02-0.53-8.43,0.95c-1.1,0.53-1.66,1.75-1.94,2.83c-0.71,0.64-1.47,1.38-2.05,2.09l-0.08-0.08
		c0.13-0.64,0.42-1.19,0.55-1.83c0.39-0.53,0.39-1.24,0.68-1.83c1-1.61,1.94-3.25,3.49-4.39c0.66-0.87,1.81-0.71,2.81-0.71
		c1.08,0.5,2.34,0.66,3.65,0.53c0.05-0.05,0.08-0.11,0.08-0.19c-0.37-0.34-0.97-0.48-1.39-0.82c-1.05-0.5-2.05,0.16-3.15,0.08
		c-0.05-0.05-0.1-0.08-0.08-0.16c1-0.74,2.13-1.27,3.26-1.75c0.92-0.5,1.89-0.77,2.86-1.14c0.39,0,0.76-0.34,1.13-0.11l1.39-0.37
		c0.05,0.03,0.11,0.11,0.21,0.08c1.18-0.4,2.68-0.03,4.02-0.05l0.19,0.16l1.26,0.32c0.47,0.05,0.68,0.61,1.18,0.64
		c0.26-0.37-0.29-0.53-0.42-0.77c0.58-0.13,1.23,0.03,1.76,0.26l-0.26,0.29c-0.16,0.29,0.08,0.5,0.32,0.61
		c0.18,0.05,0.32-0.08,0.45-0.13c0.34-0.24-0.03-0.48,0.08-0.69c1.95,0.34,3.81,0.82,5.6,1.59c0.5,0.16,0.97,0.53,1.52,0.5
		c-0.55-0.5-1.31-0.77-2-1.06c-0.45-0.27-1.08-0.29-1.42-0.66c0.08-0.13,0.26-0.08,0.34-0.18c0.89-0.11,1.66-0.77,2.29-1.48
		c0.05-0.16,0.34-0.11,0.32-0.32c-0.24-0.27-0.63,0.08-0.95,0.05c-1.1,0.21-1.58,1.51-2.68,1.75c-1.34-0.32-2.71-0.64-4.05-0.98
		c-0.66-0.11-1.37-0.16-1.97-0.42l-1.47-0.13h-2.68c-0.03-0.05-0.1-0.08-0.08-0.16c0.95-0.24,1.76-0.79,2.71-1.03l7.04-3.23
		c0.74-0.66,1.39-1.4,2-2.17c0.03-0.21-0.11-0.42-0.29-0.5c-0.18-0.08-0.39-0.05-0.52,0.11c-0.32,0.24,0,0.53,0,0.82
		c-0.32,0.42-0.82,0.79-1.21,1.03c-0.11-0.03-7.25,3.25-7.25,3.25c-1.05,0.45-2.1,0.95-3.21,1.19L61.06,35
		c-0.11,0.32-0.37,0.5-0.66,0.61c-0.42,0.08-0.76,0.34-1.21,0.34c-3.42,1.32-6.96,2.73-9.67,5.42c0.16-0.32,0.24-0.71,0.26-1.11
		c-0.05-0.4-0.03-0.85-0.29-1.16c-0.06-0.15-0.25-0.57-0.19-0.73l-0.39,0.25c-0.24,0.58-0.45,1.64-0.21,2.25
		c0.08,0.48,0.47,1.03,0.11,1.46c-1.26,1.53-1.97,3.39-2.81,5.13c-0.32-0.05-0.47-0.34-0.6-0.63c0.89-1.14,1.6-2.41,1.87-3.86
		c0.18-0.13,0.05-0.48,0.24-0.63c-0.05-0.42,0.24-0.85,0.03-1.19c0.17-0.58-0.77-1.11-0.17-1.48l-0.5,0.24
		c-1.13,1.48,0.59,3.7-0.7,5.13v0.11c-0.37,0.48-0.55,0.95-1.05,1.27c-0.63-0.26-0.87-0.98-1.23-1.51
		c-0.58-0.56-0.58-1.69-0.24-2.46c0.24-0.77-0.16-1.43-0.24-2.12l-0.26-0.16c-0.63,0.82-0.87,2.12-0.37,3.09
		c0.26,0.48,0.29,1.14,0.68,1.54c0.24,0.77,0.71,1.27,1.13,1.96c0.11,0.27-0.16,0.32-0.29,0.45c-0.29-0.19-0.24-0.61-0.5-0.79
		c-0.87-1.85-2-3.33-3.36-4.84c-0.05-0.24-0.29-0.45-0.16-0.71c0.5-0.48,0.6-1.4,0.34-2.01c-0.05-0.13-0.21-0.29-0.18-0.42
		l-0.39-0.32c0.05,0.93-0.55,1.75-0.29,2.73v0.05c-2.71-2.04-5.7-3.86-8.75-5.29l-0.24,0.67c0.77,0.19,2.81,1.44,2.81,1.44
		c0.92,0.34,1.76,0.9,2.63,1.4c3.57,1.98,5.94,5.27,7.54,8.92c0.03,0.29,0.29,0.61,0.11,0.9c-0.55-0.85-1.34-1.32-2-2.01
		c-0.18-1.24-0.92-2.43-2-2.94c-0.39-0.58-1.23-0.63-1.89-0.82L28.4,43.1c-7.78-0.11-14.87,0.24-22.59,0.11
		c-1.08-0.11-2.39-0.48-2.71-1.61c-0.21-0.4-0.21-1.08,0-1.45c0.29-0.5,0.81-0.66,1.34-0.71c0.42,0.05,0.71,0.45,0.89,0.74
		c0,0.34-0.29,0.66-0.42,0.95c0.03,0.11,0.13,0.32,0.32,0.24c0.34-0.13,0.6-0.5,0.68-0.85c0.03-0.19,0.1-0.45-0.08-0.58
		c-0.16-0.56-0.74-0.95-1.23-1.08c-0.66-0.05-1.34,0.13-1.79,0.61c-0.63,0.53-0.6,1.48-0.42,2.22c0.42,1.16,1.66,1.96,2.84,2.12
		l25.56,0.11c2.5,0.13,5.31-0.29,7.83,0.21c0.92,0.29,1.89,0.98,2.13,2.01c-0.03,0.05-0.11,0.03-0.18,0.03
		c-2.08-1.35-4.81-1.85-7.46-1.54c-1.05-0.05-2,0.34-2.94,0.61c-0.5,0.11-0.97-0.13-1.29-0.42c-0.95-0.85-2.6-0.79-3.81-0.48
		c0,0.08-0.03,0.16,0.03,0.19c1.29-0.11,2.05,1.01,3.21,1.14c0.26,0.05,0.47-0.24,0.71-0.03c-1.21,0.58-2.36,1.27-3.65,1.64
		c-0.39-0.08-0.6-0.45-0.92-0.66c-0.5-0.55-1.42-0.32-2.1-0.37c-0.24,0.05-0.45-0.11-0.6,0c0.21,0.42,0.68,0.66,1.13,0.87
		c0.66,0.29,1.42-0.03,2.02,0.37c-0.16,0.19-0.37,0.24-0.55,0.37c-1.23,0.48-2.26,1.59-3.63,1.51c-1.44,0.16-2.92-0.27-3.89-1.27
		c-0.42-1.03-1.5-1.59-2.65-1.53c-0.08,0.05-0.18,0.05-0.16,0.19c0.58,0.34,1.02,1.03,1.6,1.43c0.37,0.45,1.08,0,1.42,0.5
		c0.5,0.34,1.13,0.64,1.71,0.74c0.42,0.19,0.89,0.26,1.37,0.37l-0.18,0.11c-2.39,0.79-5.15,0.87-7.83,0.77
		c-0.79-0.03-1.55-0.26-2.34-0.24c0.13,0.16,0.39,0.29,0.63,0.37c-0.21,0.13-0.45,0.19-0.71,0.21c-0.31,0.08-0.68,0.11-1,0.26
		c-0.42-0.03-0.79,0.13-1.13,0.26c-0.45,0.48-0.97,0.98-1.5,1.22c0,0.11-0.03,0.27,0.11,0.27c0.5-0.21,1.13-0.05,1.63-0.27
		c0.87-0.08,1.37-1.03,2.05-1.43c0.73-0.58,1.79-0.45,2.68-0.32c0.53,0.13-0.05,0.34,0.1,0.69c0.21,0.19,0.39,0.4,0.68,0.32
		c0.05-0.05,0.1-0.11,0.18-0.13c0.16-0.21,0.13-0.45,0.03-0.66c0.37-0.24,0.87,0.03,1.26-0.13c1-0.03,2-0.24,2.97-0.26
		c0.16-0.03,0.34-0.19,0.5-0.03c-0.08,0.21-0.34,0.24-0.24,0.53c0.05,0.24,0.32,0.34,0.52,0.4c0.26-0.11,0.5-0.29,0.39-0.64
		c-0.05-0.19-0.26-0.21-0.39-0.29c0.55-0.27,1.18-0.34,1.73-0.61c0.39-0.08,0.76-0.21,1.1-0.37c0.34-0.03,0.63-0.34,0.95-0.21
		c-0.13,0.45-0.31,0.87-0.55,1.27c-0.42,1.4-0.73,3.25,0,4.6c0.08,0.03,0.11-0.03,0.16-0.05c-0.55-1.4-0.24-3.02,0.24-4.34
		c0.37-2.25,2.68-2.91,4.33-3.76l0.08,0.11c-0.45,1.16-1.1,2.28-1,3.68c0.05,0.24-0.11,0.48,0,0.63c0.45-0.24,0.73-0.77,0.97-1.22
		c0.18-1.19-0.5-2.67,0.71-3.54c2.15-0.85,4.18-1.96,6.67-1.98c0.08,0.08,0.26-0.05,0.29,0.1c-0.52,0.58-1.29,1.14-1.52,1.85
		c-0.84,1.16-0.81,3.15-0.45,4.58c0.24,0.82-0.47,1.27-0.81,1.91c-0.16,0.22-0.21,0.61-0.36,0.87l0.52,0.06
		c0.45-0.48,0.87-1.06,0.89-1.75c0.05,0.27,0.29,0.48,0.5,0.53c0.18-0.29-0.16-0.5-0.18-0.79c0.42-0.24,0.61,0.29,0.95,0.4
		c0.55,0.13,1.02,0.37,1.6,0.37l0.18-0.18c-0.58-0.9-1.73-1.06-2.73-1.11c-0.52-0.87-0.52-1.96-0.47-3.02
		c0.11-0.55,0.21-1.14,0.53-1.64c0.13-0.37,0.5-0.71,0.74-1c0.47-0.45,1.08-0.77,1.66-0.9h0.08c0,0.05,0.03,0.08,0.03,0.08
		c-0.71,0.56-0.79,1.32-1.21,2.01c-0.45,0.66-0.66,1.56-0.24,2.3c0.16,0.34,0.08,0.87,0.45,1.11c0.34-0.48,0.37-1.08,0.55-1.61
		c-0.08-0.87-0.6-1.69-0.1-2.54c0.26-0.66,0.81-0.93,1.42-1.16c1.44-0.13,2.71,0.61,3.97,1.16c0.26,0.19,0.71,0.34,0.76,0.71
		c-0.03,0.71-0.42,1.43-0.97,1.77c-0.71,0.42-1.73,0.48-2.39-0.03c-0.39-0.4-0.55-1.09-0.42-1.61c0.29-0.32,0.68-0.58,1.16-0.42
		c0.26,0.13,0.5,0.4,0.84,0.24c0.13-0.08,0.18-0.29,0.1-0.42c-0.29-0.16-0.39-0.56-0.79-0.61c-0.5-0.08-1.1-0.05-1.44,0.29
		c-0.55,0.48-0.76,1.19-0.6,1.85c0.18,0.85,0.81,1.46,1.63,1.69c1.21,0.29,2.47-0.08,3.23-1.11c0.31-0.34,0.39-0.71,0.58-1.14
		c1.26,0.77,2.21,2.12,2.71,3.49c0,0.45,0.13,0.93,0.03,1.32l0.92,0.08c-0.08-0.21,0-0.45,0.08-0.63c0.34-1.75,1.42-3.2,2.71-4.34
		c0.45-0.27,0.34,0.34,0.45,0.53c0.39,1.01,1.31,1.72,2.29,2.01c1.1,0.18,2.15-0.08,2.84-0.93c0.34-0.64,0.76-1.56,0.18-2.22
		c-0.37-0.45-0.87-0.69-1.44-0.69c-0.68,0-1.1,0.48-1.44,0.98c0,0.21-0.03,0.45,0.16,0.56c0.1,0,0.32,0.03,0.39-0.13
		c0.05-0.4,0.39-0.58,0.71-0.79c0.29-0.16,0.6,0,0.84,0.16c0.29,0.24,0.34,0.63,0.37,1.03c-0.05,0.5-0.39,1.03-0.87,1.24
		c-0.76,0.4-1.87,0.21-2.52-0.24c-0.31-0.34-0.5-0.74-0.73-1.16c-0.05-0.42-0.21-0.79,0-1.22c1.16-0.69,2.36-1.19,3.76-1.32
		c0.55,0.11,1.02,0.48,1.39,0.87c1.21,1.24-0.26,3.02,0.58,4.39c0.31-0.05,0.31-0.48,0.45-0.74c0.39-0.95-0.1-1.98-0.34-2.91
		c-0.32-0.58-0.5-1.08-1-1.56c0.13-0.05,0.18-0.05,0.32-0.05c0.55,0.37,1.16,0.79,1.6,1.38c0.76,1.24,1.16,2.72,1.02,4.34
		c-0.21,0.79-1.05,1.16-1.71,1.45c-0.26,0.21-0.58,0.53-0.71,0.85c0.32,0.18,0.76,0,1.08-0.13c0.5-0.19,0.79-0.82,1.13-1.11
		c0.05,0.03,0.03,0.11,0.05,0.16c0.03,0.29-0.13,0.69,0.13,0.77c0.13-0.37,0.16-0.9,0.24-1.35c0.34,0.37,0.39,0.85,0.5,1.32
		c0.24,0.48,0.63,1.11,1.26,1.19c0.16-0.24-0.03-0.48-0.08-0.69c-0.08-0.66-0.63-1.01-1-1.48c-0.92-1.27-0.5-3.25-1.21-4.68
		c-0.26-0.77-0.81-1.32-1.42-1.96l0.11-0.11c1.29-0.03,2.36,0.4,3.55,0.63c1.44,0.71,3.55,0.56,4.23,2.43
		c0.29,1.06,0.76,2.04,1.5,2.86L65,51.35c0.16-0.26,0.16-0.71,0-0.98c-0.16-1.32-1.31-1.64-1.92-2.75l0.08-0.11
		c0.63,0.19,1.29,0.34,1.92,0.61c2.1,0.58,3.57,2.65,3.84,4.79c0,1.69-0.32,3.1-0.97,4.52c-0.08,0.21-0.45,0.45-0.21,0.64
		c0.29-0.21,0.34-0.56,0.5-0.79c0.87-1.46,1.31-3.47,0.87-5.32c-0.03-0.34-0.42-0.61-0.24-0.95c0.13,0.16,0.29,0.18,0.45,0.24
		c0.16-0.11,0.39-0.11,0.5-0.29c0.03-0.16,0.13-0.34,0-0.48c-0.16-0.24-0.5-0.24-0.76-0.19c-0.13,0.16-0.29,0.37-0.32,0.58
		c-0.26-0.45-0.52-1.03-0.95-1.4l0.05-0.08c1.18,0.4,2.26,0.98,3.47,1.3c0.26,0.16,0.55,0.29,0.92,0.29
		c1.02,0.4,2.15,0.55,3.23,0.82c0.79-0.08,1.45,0.29,2.23,0.11v-0.05l-0.03,0.03c-0.29-0.37-0.92-0.03-1.26-0.29
		c-1.81-0.19-3.55-0.66-5.18-1.3c0.03-0.08,0.13-0.05,0.21-0.05c0.26-0.13,0.45-0.37,0.42-0.66c-0.13-0.19-0.34-0.29-0.6-0.29
		c-0.16,0.08-0.37,0.26-0.39,0.45c0.03,0.21,0.21,0.45,0.39,0.5c-0.05,0.05-0.16,0.03-0.24,0.03c-0.82-0.37-1.6-0.72-2.39-1.09
		c-0.29-0.05-0.53-0.29-0.81-0.34c-0.6-0.29-1.21-0.58-1.81-0.82c-1.68-0.87-3.54-1.35-5.33-1.98c-0.39-0.11-0.76-0.21-1.13-0.32
		c-0.66-0.19-1.31-0.35-1.97-0.53c-2.23-0.56-5.23-0.61-7.17,0.61c-0.32-0.11-0.5,0.4-0.66,0.08c0.55-1.46,2.15-1.93,3.6-1.98
		c10.53-0.11,20.41-0.18,30.79-0.34c1.21,0,2.39-0.42,3.02-1.51C87.59,41.4,87.67,40.32,87.32,39.6L87.32,39.6z M45.56,49.37
		c-0.11,0.32-0.32,0.58-0.29,0.93l-0.1,0.05c0.08-0.4-0.32-0.64-0.21-1.06c-0.21-0.32-0.21-0.72-0.39-1.06
		c-0.24-0.42,0.21-0.61,0.39-0.9c0.37,0.16,0.5,0.5,0.76,0.82C45.87,48.6,45.53,48.94,45.56,49.37L45.56,49.37z"/>
	<path d="M74.06,47.7c0,0.08,0.16,0.11,0.11,0.24c-0.92,0.82-2.21,1.06-3.52,1.11c-0.11,0.03-0.21,0.1-0.34,0.08
		c-0.08-0.05-0.11-0.13-0.05-0.19C71.2,47.91,72.64,47.38,74.06,47.7L74.06,47.7z"/>
	<path d="M69.83,48.12c0.1,0.37-0.13,0.58-0.42,0.71c-0.29-0.03-0.45-0.21-0.58-0.42c-0.08-0.21,0.11-0.32,0.18-0.45
		C69.22,47.75,69.72,47.75,69.83,48.12L69.83,48.12z"/>
	<path d="M19.89,48.18c0.05,0.19,0.03,0.42-0.13,0.56c-0.11,0.13-0.34,0.16-0.47,0.13c-0.18-0.03-0.29-0.24-0.34-0.4
		c0-0.24,0.13-0.37,0.34-0.5C19.5,47.97,19.73,47.94,19.89,48.18L19.89,48.18z"/>
	<path d="M15.19,49.9v0.19c-0.63,0.13-1.23-0.03-1.71-0.4c-0.37-0.53-0.79-1.06-1.39-1.32c0-0.08-0.16-0.19,0-0.24
		C13.4,48.12,14.19,49.18,15.19,49.9L15.19,49.9z"/>
	<path d="M78.05,48.15c-0.6,0.9-1.13,2.01-2.21,2.41c-0.18,0-0.34,0.26-0.5,0.08c0.42-1.01,1.31-2.09,2.34-2.51
		C77.79,48.12,77.95,48.1,78.05,48.15L78.05,48.15z"/>
	<path d="M21.41,48.47c0.03,0.29-0.18,0.34-0.37,0.5c-0.21,0.03-0.31-0.13-0.45-0.29c-0.11-0.27,0.13-0.37,0.26-0.5
		C21.07,48.12,21.31,48.28,21.41,48.47L21.41,48.47z"/>
	<path d="M81.36,48.63c-0.24,0.34-0.13,0.85-0.37,1.22c-0.53,0.61-0.97,1.3-1.81,1.43c-0.13-0.26,0.18-0.53,0.32-0.77
		c0.37-0.79,0.89-1.69,1.73-2.04L81.36,48.63L81.36,48.63z"/>
	<path d="M7.04,48.86c0.08,0.19,0.16,0.37,0,0.58c-0.16,0.13-0.39,0.18-0.6,0.1c-0.24-0.13-0.31-0.42-0.21-0.63
		C6.39,48.68,6.86,48.55,7.04,48.86L7.04,48.86z"/>
	<path d="M5.55,49.18c0.03,0.13,0.1,0.24,0.08,0.37c-0.08,0.13-0.21,0.29-0.37,0.32c-0.29,0.05-0.47-0.11-0.6-0.34
		c-0.03-0.24,0.05-0.45,0.26-0.56C5.15,48.86,5.42,49,5.55,49.18L5.55,49.18z"/>
	<path d="M8.65,49.34c0.05,0.21,0.11,0.58-0.21,0.63c-0.37,0.16-0.58-0.1-0.79-0.32c0-0.24,0.13-0.42,0.32-0.53
		C8.23,49.1,8.46,49.13,8.65,49.34L8.65,49.34z"/>
	<path d="M12.95,49.69c-0.03,0.19,0.03,0.45-0.18,0.5c-0.13,0.13-0.37,0.08-0.5,0.05c-0.05-0.16-0.34-0.29-0.18-0.48
		c0.11-0.13,0.21-0.21,0.37-0.29C12.61,49.55,12.85,49.47,12.95,49.69L12.95,49.69z"/>
	<path d="M83.88,49.87c-0.08,0.19-0.18,0.42-0.39,0.42c-0.24-0.03-0.47-0.05-0.6-0.29c-0.11-0.29,0.13-0.45,0.34-0.53
		C83.49,49.47,83.83,49.58,83.88,49.87L83.88,49.87z"/>
	<path d="M79.08,50c0.03,0.21-0.21,0.37-0.32,0.45c-0.37,0.16-0.68-0.11-0.81-0.4c0.05-0.24,0.24-0.4,0.45-0.48
		C78.73,49.55,78.92,49.74,79.08,50L79.08,50z"/>
	<path d="M82.33,49.95c0,0.19-0.1,0.37-0.24,0.45c-0.21,0.08-0.47,0.05-0.63-0.11c-0.24-0.21-0.05-0.4,0.11-0.56
		C81.81,49.61,82.25,49.63,82.33,49.95L82.33,49.95z"/>
	<path d="M6.36,50.4c0.05,0.29-0.05,0.55-0.31,0.66c-0.24,0-0.5-0.13-0.58-0.37c-0.03-0.24,0.05-0.48,0.26-0.56
		C5.99,50.06,6.2,50.21,6.36,50.4L6.36,50.4z"/>
	<path d="M77.76,50.69c0.08,0.29-0.08,0.56-0.37,0.69c-0.21,0.05-0.34-0.05-0.5-0.19c-0.11-0.13-0.24-0.42-0.03-0.56
		C77.08,50.24,77.6,50.4,77.76,50.69L77.76,50.69z"/>
	<path d="M20.49,50.98c0.11,0.29-0.21,0.34-0.29,0.5c-0.11,0.05-0.32,0.08-0.39-0.03c-0.13-0.16-0.29-0.32-0.21-0.56
		c0.13-0.11,0.18-0.21,0.34-0.26C20.23,50.56,20.34,50.82,20.49,50.98L20.49,50.98z"/>
	<path d="M83.41,51.17c0.05,0.18-0.1,0.26-0.13,0.4c-0.16,0.13-0.42,0.16-0.6,0.11c-0.24-0.13-0.24-0.34-0.24-0.58
		c0.16-0.11,0.18-0.24,0.37-0.29C83.04,50.8,83.33,50.9,83.41,51.17L83.41,51.17z"/>
	<path d="M81.78,51.25c0.1,0.32-0.18,0.48-0.39,0.56c-0.11,0.03-0.26-0.05-0.29,0.11c0.68,0.34,1.1,0.9,1.63,1.4v0.21
		c-0.94-0.03-1.92-0.26-2.6-1c-0.18-0.13-0.5-0.13-0.71-0.32c0.34-0.34,0.97-0.21,1.45-0.24c0.34-0.37-0.39-0.64,0.05-0.95
		c0.16-0.03,0.26-0.19,0.47-0.13C81.57,50.95,81.68,51.09,81.78,51.25L81.78,51.25z"/>
	<path d="M71.04,51.27c0.05,0.13-0.1,0.29-0.13,0.42c-0.16,0.16-0.39,0.19-0.58,0.11c-0.13-0.19-0.34-0.34-0.26-0.61
		C70.28,50.8,70.96,50.88,71.04,51.27L71.04,51.27z"/>
	<path d="M12.3,52.2c-0.08,0.24-0.18,0.4-0.45,0.42c-0.21-0.03-0.39-0.11-0.47-0.32c-0.03-0.18,0.1-0.29,0.13-0.42
		C11.8,51.64,12.32,51.8,12.3,52.2L12.3,52.2z"/>
	<path d="M14.43,51.85c0,0.37-0.39,0.58-0.53,0.95c-0.39,0.87-1.1,1.67-2.1,1.75c-0.11-0.24,0.34-0.53,0.45-0.77
		c0.42-0.9,1.26-1.38,2.02-1.93H14.43L14.43,51.85z"/>
	<path d="M70.41,52.23c0.03,0.29-0.24,0.5-0.45,0.61c-0.24,0.08-0.42-0.11-0.55-0.21c-0.21-0.21-0.08-0.42,0.03-0.64
		C69.75,51.67,70.2,51.93,70.41,52.23L70.41,52.23z"/>
	<path d="M72.04,52.41c-0.03,0.29-0.21,0.5-0.47,0.58c-0.05-0.08-0.18-0.03-0.26-0.05c-0.18-0.1-0.34-0.26-0.34-0.48
		c0.13-0.13,0.18-0.34,0.37-0.37C71.56,52.07,71.96,52.09,72.04,52.41L72.04,52.41z"/>
	<path d="M18.5,52.38c0.03,0.29-0.18,0.45-0.39,0.56c-0.24,0.03-0.39-0.13-0.5-0.32c-0.05-0.24,0.18-0.4,0.31-0.53
		C18.23,51.99,18.31,52.23,18.5,52.38L18.5,52.38z"/>
	<path d="M20.31,52.49c-0.08,0.24-0.24,0.4-0.5,0.45c-0.18-0.05-0.39-0.1-0.47-0.32c-0.03-0.26,0.18-0.4,0.37-0.53
		C19.97,52.09,20.26,52.2,20.31,52.49L20.31,52.49z"/>
	<path d="M77.68,54.34c0.13,0.11,0.37,0.24,0.31,0.42c-0.42,0.19-0.76-0.29-1.16-0.37c-0.63-0.63-1.1-1.32-1.37-2.12
		c0.24-0.24,0.5,0.05,0.71,0.13C76.79,52.91,77.37,53.57,77.68,54.34L77.68,54.34z"/>
	<path d="M78.66,52.49c0.08,0.19,0.05,0.4-0.05,0.58c-0.16,0.26-0.5,0.21-0.74,0.16c-0.13-0.16-0.37-0.37-0.21-0.61
		c0.08-0.21,0.31-0.26,0.5-0.34C78.34,52.25,78.47,52.41,78.66,52.49L78.66,52.49z"/>
	<path d="M22.73,53.18c0.03,0.21,0.08,0.53-0.18,0.66c-0.24,0.05-0.55-0.03-0.63-0.32c-0.13-0.32,0.16-0.37,0.32-0.53
		C22.44,52.94,22.57,53.04,22.73,53.18L22.73,53.18z"/>
	<path d="M71.96,54.9c0.37,0.53,0.63,1.19,0.68,1.88c-0.08,0.18,0.13,0.37-0.03,0.5h-0.1c-1.18-0.85-1.44-2.04-1.89-3.23
		c-0.11-0.05-0.13-0.16-0.11-0.26c0.26-0.24,0.45,0.24,0.71,0.32L71.96,54.9L71.96,54.9z"/>
	<path d="M26.14,54c-0.03,0.03,0,0.05,0.03,0.05c-1.05,0.74-2.52,1.19-3.73,0.48c-0.03-0.08,0.03-0.21,0.13-0.24
		c0.76-0.24,1.5-0.61,2.31-0.5L26.14,54L26.14,54z"/>
	<path d="M20.15,54.13c-0.89,0.56-1.71,1.64-2.81,1.91c-0.21,0.08-0.34,0.37-0.6,0.21c0.47-1.43,2.02-2.2,3.41-2.33V54.13
		L20.15,54.13z"/>
	<path d="M70.41,55.32c0.08,0.21,0,0.5-0.21,0.56c-0.13,0.13-0.39,0.13-0.5,0c-0.24-0.11-0.24-0.34-0.24-0.53
		c0.08-0.19,0.26-0.21,0.39-0.29C70.09,55.11,70.28,55.11,70.41,55.32L70.41,55.32z"/>
	<path d="M68.23,55.45c-0.16,0.37-0.6,0.58-0.95,0.69c-0.89,0.32-1.71-0.1-2.5-0.32c0.03-0.21,0.29-0.13,0.42-0.27
		c0.87-0.18,1.76-0.37,2.68-0.13C67.96,55.37,68.15,55.35,68.23,55.45L68.23,55.45z"/>
	<path d="M20.15,56.22c-0.08,0.11-0.1,0.34-0.32,0.42c-0.18,0.08-0.37,0-0.52-0.11c-0.05-0.16-0.24-0.29-0.11-0.48
		c0.05-0.19,0.26-0.24,0.42-0.29C19.89,55.8,20.1,55.96,20.15,56.22L20.15,56.22z"/>
	<path d="M21.7,56.46c-0.08,0.16-0.16,0.4-0.37,0.5c-0.21,0.05-0.37-0.05-0.53-0.18c-0.08-0.16-0.16-0.34-0.08-0.53
		c0.05-0.13,0.24-0.16,0.37-0.24C21.36,55.98,21.6,56.25,21.7,56.46L21.7,56.46z"/>
	<path d="M69.91,56.72c0.03,0.21-0.08,0.34-0.18,0.5c-0.13,0.18-0.39,0.21-0.58,0.11c-0.18-0.03-0.24-0.24-0.32-0.37
		c-0.16-0.21,0.11-0.34,0.18-0.53C69.3,56.19,69.78,56.33,69.91,56.72L69.91,56.72z"/>
	<path d="M71.06,56.67c0.03,0.13,0.1,0.26,0.05,0.37c-0.16,0.13-0.26,0.48-0.58,0.34c-0.16,0.05-0.24-0.16-0.31-0.21
		c-0.11-0.26-0.03-0.66,0.31-0.71C70.77,56.38,70.93,56.59,71.06,56.67L71.06,56.67z"/>
	<path d="M20.76,57.44c0.05,0.29-0.05,0.56-0.26,0.72c-0.29,0.05-0.66,0.05-0.76-0.29c-0.03-0.27,0-0.61,0.32-0.77
		C20.31,57.07,20.63,57.12,20.76,57.44L20.76,57.44z"/>
	<path d="M22.25,57.33c-0.05,0.74-0.21,1.64-0.95,2.06c-0.42,0.08-0.84,0.48-1.26,0.21v-0.13C20.6,58.68,21.6,58.07,22.25,57.33
		L22.25,57.33z"/>
	<path d="M65.78,57.94c0.1,0.16-0.08,0.29-0.16,0.42c-0.16,0.19-0.45,0.1-0.63,0.03c-0.18-0.08-0.21-0.34-0.13-0.53
		c0.05-0.16,0.21-0.24,0.34-0.29C65.44,57.54,65.65,57.76,65.78,57.94L65.78,57.94z"/>
	<path d="M24.88,59.16c0.37,0.61,0.16,1.43,0.37,2.09c-0.45,0.05-0.63-0.45-0.92-0.71c-0.58-0.79-0.5-1.85-0.76-2.78
		c0.05-0.08,0.13-0.08,0.18-0.05c0.39,0.26,0.68,0.77,1,1.11C24.7,59,24.91,59,24.88,59.16L24.88,59.16z"/>
	<path d="M67.1,58.15c0,0.21-0.24,0.27-0.37,0.4c-0.18-0.03-0.34-0.11-0.5-0.24c-0.08-0.26,0.13-0.34,0.26-0.48
		C66.76,57.73,67.02,57.86,67.1,58.15L67.1,58.15z"/>
	<path d="M70.22,60.51c0,0.08-0.03,0.24-0.16,0.18h-0.11c-0.76-0.69-1.52-1.45-1.42-2.51l0.16-0.03
		C69.41,58.76,70.2,59.42,70.22,60.51L70.22,60.51z"/>
	<path d="M68.25,59.66c0.03,0.21-0.1,0.37-0.24,0.5c-0.29,0.08-0.74,0.05-0.79-0.34c-0.03-0.26,0.26-0.4,0.39-0.53
		C67.94,59.21,68.15,59.42,68.25,59.66L68.25,59.66z"/>
	<path d="M66.52,60.21c-0.37,0.98-1.37,1.48-2.05,2.22c-0.13-0.08-0.08-0.29-0.05-0.4c0.26-1,1.05-1.98,2.02-2.38
		C66.86,59.71,66.44,60,66.52,60.21L66.52,60.21z"/>
	<path d="M68.49,61.01c0,0.24-0.24,0.34-0.37,0.48c-0.21-0.03-0.42-0.08-0.58-0.29c-0.03-0.26,0.18-0.34,0.34-0.48
		C68.15,60.67,68.38,60.8,68.49,61.01L68.49,61.01z"/>
	<path d="M48.94,12.97c0.36,0,0.65,0.29,0.65,0.65c0,0.36-0.29,0.65-0.65,0.65h-7.79c-0.36,0-0.65-0.29-0.65-0.65
		c0-0.36,0.29-0.65,0.65-0.65H48.94L48.94,12.97z M43.43,14.11c0.76,0,0.04-0.92-0.37-0.92h-0.76c-0.76,0-0.04,0.92,0.37,0.92H43.43
		L43.43,14.11z M46.63,14.11c0.76,0,0.04-0.92-0.37-0.92H45.5c-0.76,0-0.04,0.92,0.37,0.92H46.63L46.63,14.11z M48.98,13.18h-0.29
		c-0.76,0-0.12,0.92,0.29,0.92C49.49,14.11,49.52,13.18,48.98,13.18L48.98,13.18z"/>
	<path d="M48.26,21.91l1.49,0.57l1.46-0.57l-0.58,2.19l1.16-0.24l-0.4,1.33l0.4,1.27l-1.03-0.28l0.45,2.36l-1.46-0.57l-1.49,0.57
		l0.61-2.36l-1.19,0.33L48,25.19l-0.32-1.27l1.13,0.19L48.26,21.91L48.26,21.91z M50.46,25.86c0.33,0,0.36-0.46,0.36-0.86
		c0-0.9-0.71,0-1.08-0.85c-0.27,0.72-1,0.05-1,0.82c0,0.53,0,0.88,0.52,0.88H50.46L50.46,25.86z M49,25.05
		c0,0.34,0.46,0.11,0.8,0.11c0.34,0,0.8,0.23,0.8-0.11c0-0.49-0.46-0.32-0.8-0.32C49.46,24.73,49,24.56,49,25.05L49,25.05z"/>
	<polygon points="44.78,25.13 44.78,24.86 44.53,24.81 44.72,24.61 44.6,24.38 44.86,24.41 45.01,24.14 45.16,24.41 45.42,24.38 
		45.3,24.61 45.49,24.81 45.25,24.86 45.25,25.13 45.01,24.96 44.78,25.13 	"/>
	<polygon points="43.62,26.62 43.62,26.34 43.37,26.3 43.57,26.09 43.45,25.87 43.7,25.9 43.86,25.63 44.01,25.89 44.26,25.87 
		44.14,26.09 44.34,26.3 44.09,26.34 44.09,26.62 43.86,26.45 43.62,26.62 	"/>
	<polygon points="45.58,26.43 45.58,26.15 45.33,26.11 45.53,25.9 45.4,25.68 45.66,25.71 45.82,25.44 45.97,25.7 46.23,25.68 
		46.11,25.9 46.3,26.11 46.05,26.15 46.05,26.43 45.82,26.26 45.58,26.43 	"/>
	<polygon points="45.81,27.54 45.81,27.39 45.67,27.36 45.78,27.25 45.71,27.12 45.86,27.13 45.94,26.98 46.03,27.13 46.18,27.12 
		46.11,27.25 46.22,27.36 46.08,27.39 46.08,27.54 45.94,27.44 45.81,27.54 	"/>
	<polygon points="43.99,28.82 43.99,28.34 43.56,28.26 43.9,27.91 43.69,27.53 44.13,27.57 44.39,27.11 44.65,27.57 45.1,27.53 
		44.89,27.91 45.22,28.26 44.8,28.34 44.8,28.82 44.39,28.51 43.99,28.82 	"/>
	<polygon points="44.92,3.86 45.84,6.13 48.19,5.44 47,7.59 48.99,9 46.58,9.41 46.73,11.86 44.92,10.22 43.1,11.86 43.25,9.41 
		40.84,9 42.84,7.59 41.65,5.44 43.99,6.13 44.92,3.86 	"/>
	<path d="M36.44,54.88c-0.28,0.1-0.39,0.18-0.32,0.47l0.33,1.39c0.06,0.26,0.08,0.66-0.09,0.91c-0.21,0.3-0.64,0.49-0.95,0.57
		c-0.23,0.06-0.72,0.15-1.12-0.02c-0.26-0.11-0.43-0.23-0.55-0.71l-0.35-1.46c-0.09-0.37-0.22-0.34-0.52-0.3l-0.03-0.11l1.76-0.42
		l0.03,0.11c-0.34,0.1-0.5,0.14-0.41,0.52l0.35,1.46c0.06,0.25,0.2,0.85,0.95,0.67c0.92-0.22,0.77-0.89,0.7-1.17l-0.32-1.33
		c-0.06-0.27-0.16-0.4-0.61-0.31l-0.03-0.11l1.15-0.28L36.44,54.88L36.44,54.88z"/>
	<path d="M39.05,55.17c-0.16-0.29-0.59-0.72-1.2-0.58c-0.27,0.06-0.53,0.26-0.47,0.54c0.05,0.24,0.17,0.31,0.65,0.4l0.84,0.15
		c0.19,0.03,0.65,0.2,0.75,0.68c0.08,0.39-0.13,0.99-1.1,1.21c-0.5,0.11-0.77,0.02-0.93,0.05c-0.11,0.02-0.12,0.11-0.12,0.18
		l-0.15,0.03l-0.24-1.08l0.15-0.03c0.2,0.42,0.62,0.85,1.28,0.7c0.63-0.14,0.56-0.58,0.54-0.64c-0.06-0.29-0.33-0.34-0.7-0.41
		l-0.38-0.06c-0.97-0.16-1.06-0.54-1.1-0.74c-0.06-0.27-0.03-0.9,0.96-1.12c0.42-0.09,0.7,0,0.85-0.04c0.12-0.03,0.13-0.1,0.14-0.19
		l0.16-0.03l0.21,0.95L39.05,55.17L39.05,55.17z"/>
	<path d="M42.52,56.91l-1.9,0.18l-0.01-0.11c0.39-0.06,0.51-0.09,0.48-0.46l-0.23-2.36c-0.37,0.05-0.92,0.13-0.96,0.86l-0.16,0.02
		l-0.07-0.9l3.2-0.31l0.1,0.9l-0.15,0.01c-0.18-0.71-0.73-0.68-1.1-0.66l0.22,2.36c0.04,0.38,0.17,0.38,0.56,0.36L42.52,56.91
		L42.52,56.91z"/>
	<path d="M46.97,56.91l-1.1-0.02l-1.08-1.43l-0.15,0l-0.02,0.88c-0.01,0.36,0.11,0.38,0.46,0.42l0,0.11l-1.81-0.04l0-0.11
		c0.37-0.03,0.47-0.04,0.48-0.41l0.04-1.99c0.01-0.39-0.16-0.4-0.46-0.42l0-0.11l1.73,0.03c0.38,0.01,1.51,0.07,1.49,0.82
		c-0.01,0.55-0.57,0.68-0.86,0.75l1.05,1.3c0.07,0.08,0.15,0.09,0.22,0.09L46.97,56.91L46.97,56.91z M44.65,55.31
		c0.7,0.01,0.98-0.09,0.99-0.67c0.01-0.45-0.21-0.65-0.64-0.66c-0.29,0-0.31,0.04-0.34,0.18L44.65,55.31L44.65,55.31z"/>
	<path d="M50.49,57.36l-1.72-0.22l0.01-0.11c0.33,0.02,0.43,0.03,0.45-0.12c0.02-0.12-0.11-0.47-0.17-0.62l-1.2-0.15
		c-0.19,0.3-0.3,0.47-0.31,0.55c-0.02,0.17,0.23,0.21,0.41,0.25l-0.01,0.11l-1.08-0.14l0.01-0.11c0.29,0,0.38-0.14,0.58-0.46
		l1.48-2.3l0.15,0.02l0.89,2.5c0.18,0.51,0.25,0.67,0.5,0.69L50.49,57.36L50.49,57.36z M49,56.1l-0.4-1.15l-0.63,1.02L49,56.1
		L49,56.1z"/>
	<path d="M53.61,57.99l-3.05-0.56l0.02-0.11c0.3,0.02,0.46,0.04,0.51-0.23l0.39-2.14c0.05-0.29-0.16-0.34-0.4-0.4l0.02-0.11
		l1.84,0.34l-0.02,0.11c-0.37-0.05-0.54-0.08-0.61,0.31l-0.38,2.09c-0.04,0.21,0.07,0.27,0.42,0.33c0.8,0.15,1.16-0.17,1.49-0.62
		l0.15,0.03L53.61,57.99L53.61,57.99z"/>
	<path d="M55.63,58.45l-1.84-0.39l0.02-0.11c0.29,0.04,0.5,0.06,0.55-0.21l0.44-2.13c0.06-0.29-0.18-0.35-0.42-0.42l0.02-0.11
		l1.84,0.39l-0.02,0.11c-0.25-0.04-0.5-0.09-0.56,0.21l-0.44,2.13c-0.06,0.28,0.15,0.34,0.43,0.42L55.63,58.45L55.63,58.45z"/>
	<path d="M59.36,58.92l-1.73-0.18l0.01-0.11c0.33,0.01,0.43,0.02,0.44-0.13c0.01-0.12-0.13-0.47-0.18-0.62l-1.2-0.12
		c-0.18,0.31-0.29,0.48-0.29,0.55c-0.02,0.17,0.24,0.21,0.42,0.24l-0.01,0.11l-1.08-0.11l0.01-0.11c0.29-0.01,0.38-0.15,0.58-0.47
		l1.43-2.33l0.15,0.01l0.95,2.48c0.19,0.5,0.26,0.66,0.52,0.68L59.36,58.92L59.36,58.92z M57.84,57.7l-0.43-1.14l-0.61,1.03
		L57.84,57.7L57.84,57.7z"/>
	<path d="M45.66,22.64c0-1.08-0.61-0.07-0.94-0.99c-0.25,0.78-0.97,0.12-0.97,0.96c0,0.32,0.08,0.5,0.24,0.61v0.32
		c0,0.08,0.07,0.15,0.15,0.15h1.15c0.08,0,0.15-0.07,0.15-0.15v-0.35C45.56,23.07,45.66,22.88,45.66,22.64L45.66,22.64z
		 M44.72,22.85c-0.31,0-0.74,0.22-0.74-0.16c0-0.53,0.36-0.41,0.67-0.41c0.31,0,0.8-0.12,0.8,0.41
		C45.46,23.06,45.04,22.85,44.72,22.85L44.72,22.85z"/>
	<path d="M55.06,35.9c0.27,0,0.5-0.2,0.5-0.44c0-0.24-0.22-0.44-0.5-0.44c-0.27,0-0.5,0.2-0.5,0.44
		C54.56,35.7,54.78,35.9,55.06,35.9L55.06,35.9z"/>
	<path d="M52.73,19.9c0,0-0.23,0.39-0.23,0.46c0,0.14,0.11,0.26,0.24,0.26c0.13,0,0.24-0.12,0.24-0.26
		C52.97,20.35,52.73,19.9,52.73,19.9L52.73,19.9z"/>
	<path d="M36.86,19.9c0,0-0.23,0.39-0.23,0.46c0,0.14,0.11,0.26,0.24,0.26c0.13,0,0.24-0.12,0.24-0.26
		C37.1,20.35,36.86,19.9,36.86,19.9L36.86,19.9z"/>
	<path d="M40.83,19.9c0,0-0.23,0.39-0.23,0.46c0,0.14,0.11,0.26,0.24,0.26c0.13,0,0.24-0.12,0.24-0.26
		C41.07,20.35,40.83,19.9,40.83,19.9L40.83,19.9z"/>
	<path d="M44.79,19.9c0,0-0.23,0.39-0.23,0.46c0,0.14,0.11,0.26,0.24,0.26c0.13,0,0.24-0.12,0.24-0.26
		C45.03,20.35,44.79,19.9,44.79,19.9L44.79,19.9z"/>
	<path d="M48.76,19.9c0,0-0.23,0.39-0.23,0.46c0,0.14,0.11,0.26,0.24,0.26c0.13,0,0.24-0.12,0.24-0.26
		C49,20.35,48.76,19.9,48.76,19.9L48.76,19.9z"/>
	<path d="M36.87,25.34c0,0,0.23,0.39,0.23,0.46c0,0.14-0.11,0.26-0.24,0.26c-0.13,0-0.24-0.12-0.24-0.26
		C36.63,25.8,36.87,25.34,36.87,25.34L36.87,25.34z"/>
	<path d="M36.87,30.63c0,0,0.23,0.39,0.23,0.46c0,0.14-0.11,0.26-0.24,0.26c-0.13,0-0.24-0.12-0.24-0.26
		C36.63,31.09,36.87,30.63,36.87,30.63L36.87,30.63z"/>
	<path d="M37.5,34.82c0,0,0.23,0.39,0.23,0.46c0,0.14-0.11,0.26-0.24,0.26c-0.13,0-0.24-0.12-0.24-0.26
		C37.26,35.28,37.5,34.82,37.5,34.82L37.5,34.82z"/>
	<path d="M40.83,37.05c0,0,0.23,0.39,0.23,0.46c0,0.14-0.11,0.26-0.24,0.26c-0.13,0-0.24-0.12-0.24-0.26
		C40.59,37.51,40.83,37.05,40.83,37.05L40.83,37.05z"/>
	<path d="M52.93,25.34c0,0-0.23,0.39-0.23,0.46c0,0.14,0.11,0.26,0.24,0.26c0.13,0,0.24-0.12,0.24-0.26
		C53.17,25.8,52.93,25.34,52.93,25.34L52.93,25.34z"/>
	<path d="M52.93,30.63c0,0-0.23,0.39-0.23,0.46c0,0.14,0.11,0.26,0.24,0.26c0.13,0,0.24-0.12,0.24-0.26
		C53.17,31.09,52.93,30.63,52.93,30.63L52.93,30.63z"/>
	<path d="M52.29,34.82c0,0-0.23,0.39-0.23,0.46c0,0.14,0.11,0.26,0.24,0.26c0.13,0,0.24-0.12,0.24-0.26
		C52.53,35.28,52.29,34.82,52.29,34.82L52.29,34.82z"/>
	<path d="M48.97,37.05c0,0-0.23,0.39-0.23,0.46c0,0.14,0.11,0.26,0.24,0.26c0.13,0,0.24-0.12,0.24-0.26
		C49.21,37.51,48.97,37.05,48.97,37.05L48.97,37.05z"/>
	<path d="M44.92,39.41c0,0-0.23,0.39-0.23,0.46c0,0.14,0.1,0.26,0.23,0.26c0.13,0,0.24-0.12,0.24-0.26
		C45.16,39.86,44.92,39.41,44.92,39.41L44.92,39.41z"/>
	<path d="M51.37,31.51c0.05,0.08,0.17,0.1,0.33,0.05l0.15-0.43c0.01-0.03-0.17-0.2-0.28-0.17c-0.42,0.1-0.87,0.15-1.12,0.55
		c0,0.28,0.2,0.53,0.4,0.65c0.15-0.05,0.17,0.1,0.27,0.18c0.02,0.13-0.05,0.23-0.17,0.23c-0.3-0.3-0.82,0.1-1.05-0.28
		c0.1-0.38,0.3-0.8-0.03-1.16c0.03-0.08,0.15-0.15,0.08-0.23c-0.13-0.35-0.5-0.08-0.72-0.08c-0.37-0.05-0.67,0.15-0.9,0.45
		c0.02,0.13,0.07,0.25,0.2,0.38c0.1-0.02,0.15,0,0.17,0.1l-0.25,0.15c0.08,0.08,0.08,0.18,0.1,0.28c-0.17,0.08-0.35-0.18-0.42-0.3
		c0-0.2,0.03-0.55-0.25-0.6c-0.05,0-0.22,0.07-0.22,0.07c-0.06,0.08-0.1,0.23-0.1,0.42c0,0.18,0.1,0.45,0.1,0.45
		s0.77,0.57,0.94,0.92c-0.22,0.45-0.22,1.08-0.75,1.33c-0.15,0.1-0.15,0.25-0.15,0.4l0.13,0.1c0.33-0.18,0.95-0.23,0.9-0.78
		c0.13-0.23,0.25-0.48,0.47-0.65c0.25-0.05,0.47,0.08,0.57,0.28c-0.08,0.38-0.32,0.63-0.67,0.75c-0.05,0.05-0.03,0.13-0.03,0.2
		c0.1,0.18,0.38,0.1,0.52,0.08c0.42-0.28,0.6-0.78,0.97-0.93c0.05,0.25-0.5,0.33-0.15,0.58c0.22-0.05,0.52,0.02,0.67-0.28
		c-0.18-0.43,0.6-0.63,0.13-1c0-0.38,0.4-0.53,0.37-0.93c-0.15-0.4-0.62-0.4-0.75-0.78C51,31.41,51.22,31.44,51.37,31.51
		L51.37,31.51z"/>
	<path d="M33.14,36.09c0.27,0,0.5-0.2,0.5-0.44c0-0.24-0.22-0.44-0.5-0.44c-0.27,0-0.5,0.2-0.5,0.44
		C32.65,35.89,32.87,36.09,33.14,36.09L33.14,36.09z"/>
	<path d="M7.42,51.12c0.27,0,0.49-0.21,0.49-0.47c0-0.26-0.22-0.47-0.49-0.47c-0.27,0-0.49,0.21-0.49,0.47
		C6.93,50.91,7.15,51.12,7.42,51.12L7.42,51.12z"/>
	<path d="M23.79,54.77h-0.03l-0.03-0.04h0v0.02c0,0.01,0,0.01,0.01,0.01v0h-0.05v0c0.01,0,0.01,0,0.01-0.01V54.7
		c0-0.01,0-0.01-0.01-0.01v0h0.05c0.01,0,0.04,0,0.04,0.02c0,0.02-0.02,0.02-0.02,0.02L23.79,54.77
		C23.79,54.77,23.79,54.77,23.79,54.77L23.79,54.77L23.79,54.77z M23.72,54.72c0.02,0,0.03,0,0.03-0.02c0-0.01-0.01-0.02-0.02-0.02
		c-0.01,0-0.01,0-0.01,0.01V54.72L23.72,54.72z"/>
	<path d="M23.86,54.71c0-0.01-0.01-0.02-0.03-0.02c-0.01,0-0.02,0-0.02,0.01c0,0.01,0,0.01,0.02,0.02l0.02,0.01
		c0.01,0,0.02,0.01,0.02,0.02c0,0.01-0.01,0.03-0.04,0.03c-0.01,0-0.02,0-0.03,0c0,0,0,0,0,0h-0.01v-0.03h0.01
		c0,0.01,0.01,0.03,0.03,0.03c0.02,0,0.02-0.01,0.02-0.02c0-0.01-0.01-0.01-0.02-0.01l-0.01,0c-0.03-0.01-0.03-0.02-0.03-0.03
		c0-0.01,0-0.03,0.03-0.03c0.01,0,0.02,0,0.02,0c0,0,0,0,0.01,0h0L23.86,54.71L23.86,54.71L23.86,54.71z"/>
	<path d="M24.02,54.68c0,0-0.01,0-0.01,0.01l-0.03,0.08h0l-0.03-0.06h0l-0.03,0.06h0l-0.03-0.08c0-0.01-0.01-0.01-0.01-0.01v0h0.05
		v0c-0.01,0-0.01,0-0.01,0.01c0,0,0,0,0,0l0.02,0.05h0l0.02-0.04l-0.01-0.01c0,0,0,0-0.01-0.01v0h0.05v0c-0.01,0-0.01,0-0.01,0.01
		c0,0,0,0,0,0.01l0.02,0.04h0L24,54.69c0,0,0,0,0-0.01c0-0.01-0.01-0.01-0.01-0.01v0L24.02,54.68L24.02,54.68L24.02,54.68z"/>
	<path d="M24.03,54.77c0.02,0,0.03-0.01,0.04-0.03c0,0,0,0-0.01,0c0,0,0,0-0.01,0c-0.01,0-0.03-0.01-0.03-0.03
		c0-0.01,0.01-0.03,0.03-0.03c0.01,0,0.04,0.01,0.04,0.04C24.1,54.74,24.07,54.77,24.03,54.77L24.03,54.77L24.03,54.77z
		 M24.06,54.73C24.07,54.73,24.07,54.73,24.06,54.73c0.01,0,0.01-0.01,0.01-0.01c0-0.03,0-0.04-0.01-0.04
		c-0.01,0-0.01,0.01-0.01,0.02C24.05,54.72,24.05,54.73,24.06,54.73L24.06,54.73z"/>
	<path d="M24.12,54.71c0.01,0,0.02,0,0.03,0.01c0.01,0,0.02,0.01,0.02,0.03c0,0.02-0.02,0.03-0.05,0.03c-0.01,0-0.02,0-0.02-0.01
		c0,0,0-0.01,0.01-0.01c0.01,0,0.02,0.01,0.03,0.01c0.01,0,0.02,0,0.02-0.01c0-0.01-0.01-0.01-0.02-0.02
		c-0.01,0-0.02-0.01-0.03-0.01l0.02-0.04h0.05l-0.01,0.02h-0.04L24.12,54.71L24.12,54.71z"/>
	<path d="M54.05,19.27v-0.01H35.74v0.01h0l0.01,13.99c0,1.43,0.6,2.67,1.44,3.06l7.04,4.47c0.16,0.18,0.38,0.29,0.64,0.29
		c0.22,0,0.42-0.09,0.57-0.22l7.15-4.54c0.84-0.38,1.44-1.63,1.44-3.06L54.05,19.27L54.05,19.27L54.05,19.27z M53.53,33.44
		c-0.1,1.06-0.46,1.94-1.19,2.44l-6.9,4.39H45.4c-0.15,0.12-0.33,0.19-0.53,0.19c-0.21,0-0.39-0.07-0.54-0.19l-6.89-4.38
		c-0.73-0.5-1.09-1.38-1.19-2.44V19.76h17.28V33.44L53.53,33.44z"/>
	<path d="M47.36,39.66l0.22-0.11C47.49,39.58,47.42,39.62,47.36,39.66L47.36,39.66z"/>
	<path d="M33.55,58.78l-1.73,0.2l-0.01-0.11c0.33-0.06,0.42-0.08,0.41-0.22c-0.01-0.12-0.22-0.43-0.31-0.57l-1.2,0.14
		c-0.11,0.34-0.18,0.53-0.17,0.6c0.02,0.17,0.28,0.15,0.46,0.14l0.01,0.11l-1.08,0.13l-0.01-0.11c0.28-0.07,0.34-0.23,0.46-0.58
		l0.9-2.58l0.15-0.02l1.46,2.21c0.3,0.45,0.4,0.59,0.65,0.55L33.55,58.78L33.55,58.78z M31.8,57.92l-0.66-1.02l-0.38,1.14
		L31.8,57.92L31.8,57.92z"/>
	<path d="M63.87,52.23c-0.32-0.82-0.97-1.38-1.79-1.64c-0.84-0.18-1.73-0.05-2.29,0.58c-0.95,0.77-0.29,2.04-0.26,3.07
		c0,0.21,0.03,0.37-0.18,0.48c-3.81-0.34-7.36-1.3-11.14-1.69c-0.87-0.15-1.74-0.11-2.57-0.29l-1.06-0.11
		c-3.28,0.11-6.57,0.29-9.64,1.08c-0.66,0.21-1.39,0.26-2.05,0.5c-0.47-0.08-0.87,0.27-1.31,0.13l-0.87,0.2
		c-0.08,0.01-0.18,0.01-0.29-0.02c-0.42-1.09,0.84-1.75,0.45-2.8c-0.34-0.61-1.02-1.19-1.81-1.08c-0.89-0.11-1.68,0.4-2.1,1.08
		c-0.6,1.32,0.16,2.7,0.39,4c-0.05,0.42,0.42,0.9,0,1.24c-0.84-0.58-1.94-0.9-2.97-0.61c-0.31,0.16-0.89-0.05-1.05,0.32
		c1.13,0.61,2.57,0.53,3.84,0.48c0.16-0.05,0.26-0.08,0.39,0.03c0.11,0.69-0.13,1.61,0.29,2.22c0.47,0.63,1.26,0.79,2.02,0.87
		c2.42-0.08,4.57-0.79,6.78-1.35c0.34-0.03,0.6-0.21,0.97-0.21c1.18-0.27,2.47-0.48,3.73-0.5c-0.55,0.71-0.87,1.51-1.1,2.38
		c-0.31,0.71,0.55,0.82,0.81,1.22c-0.81,0.24-1.39,0.79-2.15,1.11c-1.68-0.05-3.1,0.58-4.68,0.77c-0.03,0.34,0.55,0.24,0.6,0.58
		c-0.08,0.24-0.31,0.26-0.5,0.4c-0.03,0.16,0,0.18,0.16,0.21c0.16-0.19,0.5-0.05,0.66-0.24c0.53,0,0.97-0.16,1.47-0.19
		c0.45-0.18,0.94-0.21,1.34-0.53c0.55-0.16,0.89-0.53,1.44-0.69c0.79,0,1.5-0.26,2.23-0.32v0.16c-0.6,0.98-1.23,1.98-1.87,2.91
		c-0.1,0.19,0.03,0.37,0.18,0.42c0.37,0.11,0.74,0,1.02-0.16c0.55-0.95,1.05-1.85,1.5-2.83c0.18-0.9,0.84-1.38,1.5-1.98
		c0.11-0.05,0.26-0.21,0.37-0.05c-0.53,0.61-0.87,1.19-1.26,1.85c-0.21,0.74-0.26,1.69,0.39,2.3c0.32,0.26,0.79,0.18,1.21,0.21
		c1.02-0.53,2.34,0.32,3.13-0.69c0.47-0.08,0.55,0.48,0.81,0.74c0.45,0.13,0.92,0.58,1.37,0.26c-0.03-0.29-0.34-0.56-0.5-0.82
		c-0.32-0.56-0.71-1.01-1-1.51c-0.13-0.37-0.37-0.61-0.42-0.98c0.47,0.16,0.89,0.48,1.42,0.56c0.45,0.19,1,0.16,1.42,0.42
		c0.34,0.45,0.87,0.71,1.31,1c0.66,0.32,1.39,0.37,2.08,0.64c0.26,0.03,0.66,0.24,0.84,0c-0.11-0.13-0.24-0.21-0.39-0.29
		c-0.08-0.34,0.47-0.16,0.66-0.42c-0.07-0.13-0.18-0.18-0.3-0.2c-0.38-0.2-1.31-0.27-1.56-0.41c-0.32-0.05-0.6-0.19-0.92-0.29
		c-1.58,0-2.44-1.43-3.7-1.96c0.29-0.26,0.74-0.47,0.92-0.87c0.24-0.37,0.31-0.98,0.08-1.4c-0.24-0.82-1.29-0.72-1.89-1.16
		l0.08-0.08c1.02-0.05,1.92,0.19,2.84,0.37c2.52,0.34,4.86,1.3,7.49,1.35c1.44,0,3.26,0.08,3.97-1.32c0.13-0.82,0.29-1.64,0.42-2.46
		C63.13,54.9,64,53.68,63.87,52.23L63.87,52.23z M35.49,64.29l-0.37-0.34c0.18-0.24,0.58-0.11,0.87-0.27
		c0.68-0.21,1.47-0.48,2.23-0.32C37.44,64,36.41,64.08,35.49,64.29L35.49,64.29z M51.89,63.87c0.63,0.28,1.89,0.56,2.8,0.66
		c-0.08,0.36-0.72,0.02-0.65,0.53c-0.81-0.32-1.76-0.48-2.36-1.11C51.74,63.92,51.79,63.84,51.89,63.87L51.89,63.87z M27.25,52.62
		c0.08-0.48,0.18-0.98,0.63-1.32c0.63-0.34,1.5-0.26,2.08,0.08c0.18,0.1,0.32,0.26,0.42,0.5c0.13,0.45-0.08,0.93-0.4,1.19h-0.26
		c0-0.42,0-0.85,0.16-1.19c-0.03-0.32-0.29-0.34-0.5-0.48c-0.45-0.13-0.84,0.08-1.18,0.27c-0.26,0.32-0.5,0.71-0.34,1.16
		c0.18,0.29,0.03,0.69,0.13,1.01l-0.08,0.11C27.59,53.6,27.17,53.23,27.25,52.62L27.25,52.62z M28.48,53.38
		c0.39,0.29,0.95,0.16,1.42,0.24c0.08,0.29,0.08,0.66-0.13,0.9c-0.45-0.11-1.02-0.05-1.26-0.48C28.56,53.85,28.43,53.59,28.48,53.38
		L28.48,53.38z M28.4,52.49c0.08-0.21,0-0.53,0.29-0.58c0.18-0.05,0.47-0.05,0.5,0.16c-0.03,0.32-0.05,0.63-0.13,0.93
		C28.69,53.02,28.51,52.81,28.4,52.49L28.4,52.49z M40.72,60.98c-0.13-0.93,0.24-1.72,0.84-2.38c0.37-0.08,0.79-0.16,1.13,0.05
		c-0.68,0.19-1.55,0.34-1.71,1.22c0.03,0.34-0.08,0.53,0.08,0.82c0.29,0.5,0.95,0.29,1.31,0.69c0,0.13-0.1,0.29-0.24,0.32
		C41.69,61.43,41.14,61.33,40.72,60.98L40.72,60.98z M39.78,62.81c0.63-0.27,1.29-0.82,2-0.58C41.27,62.62,40.46,62.78,39.78,62.81
		L39.78,62.81z M42.27,63.07c-0.37,0.85-0.79,1.67-1.29,2.49c-0.05,0.13-0.26,0.16-0.42,0.19c0-0.37,0.37-0.66,0.53-0.98
		c0.55-0.71,0.71-1.48,1.34-2.17C42.59,62.76,42.27,62.86,42.27,63.07L42.27,63.07z M42.93,61.54v0.11h-0.05v-0.11v-0.03h0.11
		c-0.03,0-0.08,0-0.11,0.03H42.93L42.93,61.54z M42.69,60.82c-0.45-0.05-0.87-0.19-1.26-0.32c-0.26-0.27,0-0.56,0-0.85
		c0.37-0.58,1.42-0.87,1.92-0.34C43.27,59.9,43.06,60.4,42.69,60.82L42.69,60.82z M43.27,60.82c0.08-0.34,0.24-0.79,0.42-1.11
		C43.66,60.06,43.51,60.53,43.27,60.82L43.27,60.82z M43.56,58.68c-0.34-0.08-0.53-0.48-0.89-0.48c0.31-0.11,0.63-0.08,1-0.03
		C43.8,58.36,43.59,58.52,43.56,58.68L43.56,58.68z M43.87,59.48h-0.03v-0.29h0.03V59.48L43.87,59.48z M43.9,60.69
		c-0.03-0.1,0.05-0.24,0.08-0.37c0.13-0.13,0.26,0.11,0.32,0.19C44.22,60.64,44.06,60.72,43.9,60.69L43.9,60.69z M44.3,59.05
		c0.13-0.37,0.16-0.69,0.39-0.98c0.26,0,0.5,0,0.71,0.11c0.05,0.53,0.71,1.24,0,1.69c-0.24,0.11-0.58,0.34-0.84,0.11
		C44.22,59.69,44.16,59.42,44.3,59.05L44.3,59.05z M46.21,58.31c-0.05-0.24,0.24-0.05,0.34-0.16l0.81,0.05
		C46.95,58.15,46.42,59.13,46.21,58.31L46.21,58.31z M47.53,58.65c-0.32,0.11-0.55,0.48-0.87,0.56
		C46.82,58.92,47.21,58.63,47.53,58.65L47.53,58.65z M46.42,60.3v0.08H46.4V60.3H46.42L46.42,60.3z M46.47,61.91
		c-0.03,0.05,0.03,0.13-0.05,0.18l-0.6-0.48C46.11,61.57,46.32,61.7,46.47,61.91L46.47,61.91z M45.77,61.09
		c0.05-0.05,0.18-0.05,0.24,0H45.77L45.77,61.09z M45.4,60.69c0.1-0.16,0.24-0.4,0.42-0.4c0,0.03,0.03,0.05,0.05,0.08
		C45.71,60.51,45.58,60.64,45.4,60.69L45.4,60.69z M44.79,60.64h-0.11l0.16-0.16C44.93,60.53,44.82,60.59,44.79,60.64L44.79,60.64z
		 M44.87,61.64c0.34-0.37,0.66,0.21,0.79,0.5c0.39,0.58,1.42,1.11,1.02,1.9c-0.5,0.45-1.29,0.03-1.84,0.37
		c-0.29-0.03-0.79,0.05-0.95-0.24C44.19,63.34,44.45,62.39,44.87,61.64L44.87,61.64z M44.14,62.15l0.13-0.21
		c-0.21,0.63-0.53,1.3-0.87,1.91C43.24,63.21,43.9,62.7,44.14,62.15L44.14,62.15z M45.29,65.3c-0.5,0.03-1.26,0.32-1.73-0.11
		c0.03-0.21-0.21-0.32-0.18-0.53c0.42-0.16,0.79,0.34,1.18-0.03c0.6,0.03,1.23-0.08,1.84,0.05c0.29,0.08,0.74-0.48,0.79,0.08
		C46.97,65.64,45.92,65.03,45.29,65.3L45.29,65.3z M46.82,61.49v-0.08h0.05v0.08H46.82L46.82,61.49z M46.97,63.15
		c0.03,0.26,0.29,0.37,0.13,0.61C47.05,63.66,46.89,63.42,46.97,63.15L46.97,63.15z M47.71,64.74l-0.13,0.05
		c-0.13-0.11-0.08-0.4-0.05-0.56C47.68,64.37,47.82,64.55,47.71,64.74L47.71,64.74z M49.02,65.38c-0.03,0.08-0.16,0.08-0.21,0.03
		c-0.79-1-1.16-2.06-1.66-3.17l0.11-0.03C47.89,63.23,48.39,64.37,49.02,65.38L49.02,65.38z M50,62.94
		c-0.05,0.03-0.05,0.08-0.05,0.11c-0.76,0.03-1.26-0.42-1.84-0.82l-0.03-0.13C48.79,62.15,49.36,62.6,50,62.94L50,62.94z
		 M49.31,59.42c0.32,0.08,0.34,0.42,0.37,0.69c-0.03,0.58-0.34,1.09-0.89,1.3c-0.29,0.16-0.74,0.21-1.02,0.11
		c0.63-0.03,1.31-0.26,1.58-0.9L49.31,59.42L49.31,59.42z M48.73,59.32c0.13,0.37,0.37,0.71,0.24,1.16c-0.26,0.5-0.79,0.5-1.26,0.61
		c-0.24,0.03-0.42-0.05-0.6-0.18c0.03-0.11-0.03-0.19-0.11-0.26c0.08-0.34-0.6-0.69-0.13-0.98C47.29,59.26,48.29,58.36,48.73,59.32
		L48.73,59.32z M62.08,57.38c-0.21,0.26-0.03,0.69-0.29,0.93c0,0.48-0.39,0.71-0.74,0.9c-3.13,0.69-6.2-0.37-9.22-0.9
		c-4.23-0.93-9.17-1.19-13.48-0.21c-2.02,0.37-3.99,0.85-5.94,1.4c-1.21,0.16-2.52,0.34-3.68-0.03c-0.95-0.45-0.55-1.67-0.84-2.51
		c0.05-0.66-0.18-1.19-0.21-1.83c-0.08-0.21-0.13-0.48-0.11-0.69c0.39,0.05,0.79,0.34,1.21,0.45c2.21,0.42,4.18-0.29,6.23-0.66
		c1.97-0.42,3.99-0.77,6.07-0.93c2.36-0.03,4.78-0.16,7.04,0.24c0.74,0.03,1.37,0.21,2.07,0.26c1.47,0.19,2.84,0.58,4.33,0.69
		c0.24,0.08,0.53,0.08,0.79,0.13c2.36,0.37,5.02,1.03,7.28,0C62.6,55.59,62.21,56.46,62.08,57.38L62.08,57.38z M61.34,54.16
		c0.03,0.42-0.37,0.32-0.58,0.48h-0.63c-0.13-0.21-0.08-0.53-0.08-0.74C60.48,53.97,60.95,53.97,61.34,54.16L61.34,54.16z
		 M61.06,53.5c0.29-0.29-0.08-1.96,0.74-0.87c0,0.21,0.03,0.53-0.18,0.69C61.47,53.42,61.26,53.63,61.06,53.5L61.06,53.5z
		 M63.18,53.23c-0.24,0.48-0.6,0.82-1.13,0.9c0.03-0.64,0.6-1.09,0.39-1.8c-0.34-0.5-1.03-0.66-1.66-0.53
		c-0.24,0.16-0.13,0.42-0.21,0.66l-0.11,0.87c-0.53,0-0.55-0.48-0.71-0.85c0.03-0.56,0.26-1.11,0.81-1.38
		c0.42-0.21,1.1-0.19,1.52,0.05c0.34,0.08,0.74,0.24,0.87,0.56C63.37,52.09,63.26,52.75,63.18,53.23L63.18,53.23z"/>
</g>
</svg>
