<?xml version="1.0" encoding="utf-8"?>
<!-- Generator: Adobe Illustrator 19.0.0, SVG Export Plug-In . SVG Version: 6.00 Build 0)  -->
<!DOCTYPE svg PUBLIC "-//W3C//DTD SVG 1.1//EN" "http://www.w3.org/Graphics/SVG/1.1/DTD/svg11.dtd">
<svg version="1.1" id="Layer_1" xmlns="http://www.w3.org/2000/svg" xmlns:xlink="http://www.w3.org/1999/xlink" x="0px" y="0px"
	 width="60px" height="75px" viewBox="0 0 60 75" enable-background="new 0 0 60 75" xml:space="preserve">
<path fill="none" stroke="#000000" stroke-width="2" stroke-miterlimit="10" d="M12.21,59.27c-3.5-1.88-6.55-4.38-9.07-7.43
	c-0.77-0.93-0.7-2.3,0.16-3.15c0.74-0.73,1.86-0.87,2.74-0.39c0.14,0.08,0.28,0.17,0.41,0.28c1.06,0.91,2.21,1.7,3.41,2.34
	c1.22,0.66,2.52,1.18,3.89,1.57c6.31,1.81,12.95,1.05,18.69-2.13c5.74-3.18,9.9-8.41,11.71-14.72c2.19-7.64,0.48-15.95-4.58-22.23
	c-0.06-0.07-0.11-0.14-0.15-0.22c-1.53-2.42-3.52-4.44-5.92-6c-0.97-0.63-1.33-1.88-0.85-2.93c0.49-1.05,1.67-1.59,2.78-1.25
	c1.99,0.59,3.93,1.4,5.77,2.39c14.85,7.99,20.43,26.57,12.44,41.43C45.65,61.68,27.06,67.26,12.21,59.27z"/>
</svg>
