<?xml version="1.0" encoding="utf-8"?>
<!-- Generator: Adobe Illustrator 19.0.0, SVG Export Plug-In . SVG Version: 6.00 Build 0)  -->
<!DOCTYPE svg PUBLIC "-//W3C//DTD SVG 1.1//EN" "http://www.w3.org/Graphics/SVG/1.1/DTD/svg11.dtd">
<svg version="1.1" id="Layer_1" xmlns="http://www.w3.org/2000/svg" xmlns:xlink="http://www.w3.org/1999/xlink" x="0px" y="0px"
	 width="76.5px" height="75px" viewBox="0 0 76.5 75" enable-background="new 0 0 76.5 75" xml:space="preserve">
<path fill="none" stroke="#000000" stroke-width="2" stroke-linecap="round" stroke-linejoin="round" stroke-miterlimit="10" d="
	M62.04,22.54c-0.95,2.95-3.26,5.3-6.2,6.28"/>
<g>
	<path fill="none" stroke="#000000" stroke-width="2" stroke-linecap="round" stroke-linejoin="round" stroke-miterlimit="10" d="
		M57.88,52c3.7,0,6.69-4.98,6.69-8.67s-3-7.68-6.69-7.68c-0.33,0-0.65-0.46-0.96-0.42c0.17-0.58,0.26-1.45,0.26-2.08
		c0-3.7-3-6.82-6.69-6.82c-0.7,0-1.38,0.05-2.01,0.25c-0.79-2.82-3.37-4.92-6.44-4.92c-3.7,0-6.69,2.98-6.69,6.68
		c0,0.27,0.02,0.53,0.05,0.79c-0.36-0.06-0.73-0.1-1.11-0.1c-3.68,0-6.66,2.97-6.69,6.64c-1.02-0.64-2.23-1.01-3.52-1.01
		c-3.7,0-6.69,4.98-6.69,8.67s3,8.67,6.69,8.67H57.88z"/>
</g>
<path fill="none" stroke="#000000" stroke-width="2" stroke-linecap="round" stroke-linejoin="round" stroke-miterlimit="10" d="
	M64.45,42.94c5.01-0.55,8.91-5.1,8.91-10.24c0-5.48-4.44-10.11-9.93-10.11c-0.49,0-0.96-0.04-1.43,0.02
	c0.25-0.87,0.39-1.82,0.39-2.77c0-5.48-4.44-9.95-9.93-9.95c-1.04,0-2.04,0.15-2.99,0.45c-1.17-4.18-5-7.26-9.55-7.26
	C34.45,3.1,30,7.54,30,13.02c0,0.4,0.03,0.8,0.08,1.19c-0.54-0.09-1.08-0.15-1.64-0.15c-5.46,0-9.88,4.41-9.92,9.86
	c-1.52-0.94-3.31-1.5-5.23-1.5c-5.48,0-9.93,4.81-9.93,10.29S7.81,43,13.29,43h3.66"/>
</svg>
