<?xml version="1.0" encoding="utf-8"?>
<!-- Generator: Adobe Illustrator 19.0.0, SVG Export Plug-In . SVG Version: 6.00 Build 0)  -->
<!DOCTYPE svg PUBLIC "-//W3C//DTD SVG 1.1//EN" "http://www.w3.org/Graphics/SVG/1.1/DTD/svg11.dtd">
<svg version="1.1" id="Layer_1" xmlns="http://www.w3.org/2000/svg" xmlns:xlink="http://www.w3.org/1999/xlink" x="0px" y="0px"
	 width="76px" height="75px" viewBox="0 0 76 75" enable-background="new 0 0 76 75" xml:space="preserve">
<path fill="none" stroke="#000000" stroke-width="2" stroke-miterlimit="10" d="M45.09,32.92c-20.12,0-36.11-4.9-36.27-4.95
	c-0.67-0.21-1.09-0.89-0.96-1.58c0.12-0.67,0.7-1.15,1.37-1.15c0.03,0,0.05,0,0.08,0c3.9,0.22,7.44,0.33,10.84,0.33
	c9.05,0,16.54-0.76,23.57-2.39c8.15-1.89,7.29-7.17,7.25-7.39c-0.01-0.08-0.02-0.17-0.02-0.25c0-1.88-1.53-3.41-3.42-3.41
	c-1.93,0-3.57,1.56-3.57,3.41c0,0.77-0.63,1.4-1.4,1.4c-0.77,0-1.4-0.63-1.4-1.4c0-6.64,5.4-12.04,12.04-12.04
	c6.62,0,12.01,5.36,12.04,11.97c0.08,0.82,0.46,6.79-3.81,11.58C57.97,30.95,52.47,32.92,45.09,32.92z"/>
<g>
	<path fill="none" stroke="#000000" stroke-width="2" stroke-linecap="round" stroke-linejoin="round" stroke-miterlimit="10" d="
		M31.61,62.54c-0.42-0.53-0.79-1.1-1.11-1.71"/>
	<path fill="none" stroke="#000000" stroke-width="2" stroke-linecap="round" stroke-linejoin="round" stroke-miterlimit="10" d="
		M40.17,66.58c-0.19,0.01-0.39,0.01-0.59,0.01c-0.66-0.01-1.3-0.09-1.94-0.23"/>
	<path fill="none" stroke="#000000" stroke-width="2" stroke-linecap="round" stroke-linejoin="round" stroke-miterlimit="10" d="
		M48.22,61.89c-0.48,0.65-1.13,1.41-1.95,2.13"/>
	<path fill="none" stroke="#000000" stroke-width="2" stroke-linecap="round" stroke-linejoin="round" stroke-miterlimit="10" d="
		M50.06,53.41c0.16,0.81,0.25,1.68,0.23,2.6"/>
	<path fill="none" stroke="#000000" stroke-width="2" stroke-linecap="round" stroke-linejoin="round" stroke-miterlimit="10" d="
		M45.09,45.54c0.72,0.47,1.39,1.02,2.01,1.7"/>
	<path fill="none" stroke="#000000" stroke-width="2" stroke-linecap="round" stroke-linejoin="round" stroke-miterlimit="10" d="
		M36.77,42.06c0.76,0.2,1.53,0.43,2.32,0.71"/>
	<path fill="none" stroke="#000000" stroke-width="2" stroke-linecap="round" stroke-linejoin="round" stroke-miterlimit="10" d="
		M27.25,40.94c0.9,0.02,1.81,0.05,2.75,0.11"/>
	<path fill="none" stroke="#000000" stroke-width="2" stroke-linecap="round" stroke-linejoin="round" stroke-miterlimit="10" d="
		M17.88,41.32c0.89-0.13,1.73-0.22,2.54-0.29"/>
	<path fill="none" stroke="#000000" stroke-width="2" stroke-linecap="round" stroke-linejoin="round" stroke-miterlimit="10" d="
		M9.08,43.65c0.9-0.35,1.85-0.68,2.86-0.99"/>
	<path fill="none" stroke="#000000" stroke-width="2" stroke-linecap="round" stroke-linejoin="round" stroke-miterlimit="10" d="
		M3,46.58c0.55-0.32,1.16-0.66,1.83-1.01"/>
	<path fill="none" stroke="#000000" stroke-width="2" stroke-linecap="round" stroke-linejoin="round" stroke-miterlimit="10" d="
		M37.79,55.42c0.08,0.6,0.04,1.24-0.14,1.92"/>
	<path fill="none" stroke="#000000" stroke-width="2" stroke-linecap="round" stroke-linejoin="round" stroke-miterlimit="10" d="
		M31.39,49.67c0.8,0.31,1.55,0.65,2.25,1.02"/>
	<path fill="none" stroke="#000000" stroke-width="2" stroke-linecap="round" stroke-linejoin="round" stroke-miterlimit="10" d="
		M22.38,47.36c0.69,0.11,1.4,0.24,2.11,0.38"/>
	<path fill="none" stroke="#000000" stroke-width="2" stroke-linecap="round" stroke-linejoin="round" stroke-miterlimit="10" d="
		M13.71,46.39c0,0,0.77,0.04,2.04,0.14"/>
</g>
<g>
	<path fill="none" stroke="#000000" stroke-width="2" stroke-linecap="round" stroke-linejoin="round" stroke-miterlimit="10" d="
		M71.03,33.88c0.93-0.53,1.47-0.96,2.02-1.59"/>
	<path fill="none" stroke="#000000" stroke-width="2" stroke-linecap="round" stroke-linejoin="round" stroke-miterlimit="10" d="
		M63.17,36.36c1.07-0.26,1.82-0.46,2.88-0.87"/>
	<path fill="none" stroke="#000000" stroke-width="2" stroke-linecap="round" stroke-linejoin="round" stroke-miterlimit="10" d="
		M54.79,37.41c1.27-0.04,2.01-0.1,3.16-0.18"/>
	<path fill="none" stroke="#000000" stroke-width="2" stroke-linecap="round" stroke-linejoin="round" stroke-miterlimit="10" d="
		M46.1,37.45c1.36,0.05,1.99,0.04,3.07,0.04"/>
	<path fill="none" stroke="#000000" stroke-width="2" stroke-linecap="round" stroke-linejoin="round" stroke-miterlimit="10" d="
		M67.73,41.66c0.93-0.57,1.59-1.1,2.31-1.83"/>
	<path fill="none" stroke="#000000" stroke-width="2" stroke-linecap="round" stroke-linejoin="round" stroke-miterlimit="10" d="
		M57.59,42.61c0.43,0.09,0.87,0.16,1.33,0.23c0.62,0.09,1.25,0.17,1.88,0.23"/>
</g>
</svg>
