<?xml version="1.0" encoding="utf-8"?>
<!-- Generator: Adobe Illustrator 19.0.0, SVG Export Plug-In . SVG Version: 6.00 Build 0)  -->
<!DOCTYPE svg PUBLIC "-//W3C//DTD SVG 1.1//EN" "http://www.w3.org/Graphics/SVG/1.1/DTD/svg11.dtd">
<svg version="1.1" id="Layer_1" xmlns="http://www.w3.org/2000/svg" xmlns:xlink="http://www.w3.org/1999/xlink" x="0px" y="0px"
	 width="66px" height="75px" viewBox="0 0 66 75" enable-background="new 0 0 66 75" xml:space="preserve">
<line fill="none" stroke="#000000" stroke-width="2" stroke-linecap="round" stroke-linejoin="round" stroke-miterlimit="10" x1="3" y1="49" x2="63" y2="49"/>
<line fill="none" stroke="#000000" stroke-width="2" stroke-linecap="round" stroke-linejoin="round" stroke-miterlimit="10" x1="63" y1="40" x2="3" y2="40"/>
<g>
	
		<line fill="none" stroke="#000000" stroke-width="2" stroke-linecap="round" stroke-linejoin="round" stroke-miterlimit="10" x1="63" y1="31" x2="3" y2="31"/>
</g>
<path fill="none" stroke="#000000" stroke-width="2" stroke-linecap="round" stroke-linejoin="round" stroke-miterlimit="10" d="
	M34.38,2.89c-0.37-0.03-0.72,0.16-0.9,0.48c-0.18,0.32-0.14,0.72,0.08,1.02c1.78,2.29,2.72,5.03,2.72,7.91
	c0,7.13-5.8,12.93-12.93,12.93c-2.74,0-5.36-0.86-7.59-2.48c-0.3-0.22-0.7-0.24-1.02-0.05c-0.32,0.19-0.5,0.54-0.46,0.91
	c1.08,9.41,9.05,16.51,18.53,16.51c10.29,0,18.66-8.37,18.66-18.66C51.48,11.85,43.97,3.69,34.38,2.89z"/>
</svg>
