<?xml version="1.0" encoding="utf-8"?>
<!-- Generator: Adobe Illustrator 19.0.0, SVG Export Plug-In . SVG Version: 6.00 Build 0)  -->
<!DOCTYPE svg PUBLIC "-//W3C//DTD SVG 1.1//EN" "http://www.w3.org/Graphics/SVG/1.1/DTD/svg11.dtd">
<svg version="1.1" id="Layer_1" xmlns="http://www.w3.org/2000/svg" xmlns:xlink="http://www.w3.org/1999/xlink" x="0px" y="0px"
	 width="66px" height="75px" viewBox="0 0 66 75" enable-background="new 0 0 66 75" xml:space="preserve">
<path fill="none" stroke="#000000" stroke-width="2" stroke-miterlimit="10" d="M34.38,2.89c-0.37-0.03-0.72,0.16-0.9,0.48
	c-0.18,0.32-0.14,0.72,0.08,1.02c1.78,2.29,2.72,5.03,2.72,7.91c0,7.13-5.8,12.93-12.93,12.93c-2.74,0-5.36-0.86-7.59-2.48
	c-0.3-0.22-0.7-0.24-1.02-0.05c-0.32,0.19-0.5,0.54-0.46,0.91c1.08,9.41,9.05,16.51,18.53,16.51c10.29,0,18.66-8.37,18.66-18.66
	C51.48,11.85,43.97,3.69,34.38,2.89z"/>
<g>
	
		<line fill="none" stroke="#000000" stroke-width="2" stroke-linecap="round" stroke-linejoin="round" stroke-miterlimit="10" x1="53.07" y1="50" x2="63.07" y2="50"/>
	
		<line fill="none" stroke="#000000" stroke-width="2" stroke-linecap="round" stroke-linejoin="round" stroke-miterlimit="10" x1="38.07" y1="50" x2="43.07" y2="50"/>
	
		<line fill="none" stroke="#000000" stroke-width="2" stroke-linecap="round" stroke-linejoin="round" stroke-miterlimit="10" x1="23.07" y1="50" x2="28.07" y2="50"/>
	
		<line fill="none" stroke="#000000" stroke-width="2" stroke-linecap="round" stroke-linejoin="round" stroke-miterlimit="10" x1="3.07" y1="50" x2="13.07" y2="50"/>
</g>
<line fill="none" stroke="#000000" stroke-width="2" stroke-linecap="round" stroke-linejoin="round" stroke-miterlimit="10" x1="63.07" y1="41" x2="3.07" y2="41"/>
<line fill="none" stroke="#000000" stroke-width="2" stroke-linecap="round" stroke-linejoin="round" stroke-miterlimit="10" x1="63.07" y1="32" x2="3.07" y2="32"/>
</svg>
