<?xml version="1.0" encoding="utf-8"?>
<!-- Generator: Adobe Illustrator 19.0.0, SVG Export Plug-In . SVG Version: 6.00 Build 0)  -->
<!DOCTYPE svg PUBLIC "-//W3C//DTD SVG 1.1//EN" "http://www.w3.org/Graphics/SVG/1.1/DTD/svg11.dtd">
<svg version="1.1" id="Layer_1" xmlns="http://www.w3.org/2000/svg" xmlns:xlink="http://www.w3.org/1999/xlink" x="0px" y="0px"
	 width="76px" height="75px" viewBox="0 0 76 75" enable-background="new 0 0 76 75" xml:space="preserve">
<g>
	
		<line fill="none" stroke="#000000" stroke-width="2" stroke-linecap="round" stroke-linejoin="round" stroke-miterlimit="10" x1="33.3" y1="57.37" x2="30.05" y2="60.61"/>
	
		<line fill="none" stroke="#000000" stroke-width="2" stroke-linecap="round" stroke-linejoin="round" stroke-miterlimit="10" x1="47.17" y1="57.37" x2="43.93" y2="60.61"/>
	
		<line fill="none" stroke="#000000" stroke-width="2" stroke-linecap="round" stroke-linejoin="round" stroke-miterlimit="10" x1="61.05" y1="57.37" x2="57.8" y2="60.61"/>
	
		<line fill="none" stroke="#000000" stroke-width="2" stroke-linecap="round" stroke-linejoin="round" stroke-miterlimit="10" x1="19.42" y1="57.37" x2="16.18" y2="60.61"/>
</g>
<line fill="none" stroke="#000000" stroke-width="2" stroke-linecap="round" stroke-linejoin="round" stroke-miterlimit="10" x1="36.8" y1="67.37" x2="33.55" y2="70.61"/>
<line fill="none" stroke="#000000" stroke-width="2" stroke-linecap="round" stroke-linejoin="round" stroke-miterlimit="10" x1="51.17" y1="67.37" x2="47.93" y2="70.61"/>
<line fill="none" stroke="#000000" stroke-width="2" stroke-linecap="round" stroke-linejoin="round" stroke-miterlimit="10" x1="23.42" y1="67.37" x2="20.18" y2="70.61"/>
<g>
	<g>
		<path fill="none" stroke="#000000" stroke-width="2" stroke-linecap="round" stroke-linejoin="round" stroke-miterlimit="10" d="
			M64,44.45c5.05-0.59,9-5.87,9-11.04c0-5.48-4.44-10.51-9.93-10.51c-0.49,0-0.96-0.24-1.43-0.18c0.25-0.87,0.39-1.92,0.39-2.87
			c0-5.48-4.44-10-9.93-10c-1.04,0-2.04,0.13-2.99,0.42c-1.17-4.18-5-7.27-9.55-7.27c-5.48,0-9.93,4.43-9.93,9.92
			c0,0.4,0.03,0.79,0.08,1.19c-0.54-0.09-1.08-0.15-1.64-0.15c-5.46,0-9.88,4.4-9.92,9.85c-1.52-0.94-3.3-1.5-5.23-1.5
			C7.44,22.32,3,27.93,3,33.41S7.44,44.5,12.93,44.5H17"/>
		<path fill="none" stroke="#000000" stroke-width="2" stroke-linecap="round" stroke-linejoin="round" stroke-miterlimit="10" d="
			M61.68,22.45c-0.86,2.69-2.86,4.88-5.43,5.99"/>
	</g>
	<g>
		<path fill="none" stroke="#000000" stroke-width="2" stroke-linecap="round" stroke-linejoin="round" stroke-miterlimit="10" d="
			M57.52,51.5c3.7,0,6.69-5.28,6.69-8.97c0-3.7-3-7.83-6.69-7.83c-0.33,0-0.65-0.54-0.96-0.49c0.17-0.58,0.26-1.48,0.26-2.12
			c0-3.7-3-6.84-6.69-6.84c-0.7,0-1.38,0.04-2.01,0.24c-0.79-2.82-3.37-4.92-6.44-4.92c-3.7,0-6.69,2.98-6.69,6.67
			c0,0.27,0.02,0.53,0.05,0.79c-0.36-0.06-0.73-0.1-1.11-0.1c-3.68,0-6.66,2.97-6.69,6.64c-1.02-0.64-2.23-1.01-3.52-1.01
			c-3.7,0-6.69,5.28-6.69,8.97c0,3.7,3,8.97,6.69,8.97H57.52z"/>
	</g>
</g>
</svg>
