<?xml version="1.0" encoding="utf-8"?>
<!-- Generator: Adobe Illustrator 19.0.0, SVG Export Plug-In . SVG Version: 6.00 Build 0)  -->
<!DOCTYPE svg PUBLIC "-//W3C//DTD SVG 1.1//EN" "http://www.w3.org/Graphics/SVG/1.1/DTD/svg11.dtd">
<svg version="1.1" id="Layer_1" xmlns="http://www.w3.org/2000/svg" xmlns:xlink="http://www.w3.org/1999/xlink" x="0px" y="0px"
	 width="72.93px" height="75px" viewBox="0 0 72.93 75" enable-background="new 0 0 72.93 75" xml:space="preserve">
<g>
	<g>

			<line fill="none" stroke="#000000" stroke-width="2" stroke-linecap="round" stroke-linejoin="round" stroke-miterlimit="10" x1="37.43" y1="48.58" x2="28.19" y2="57.82"/>

			<line fill="none" stroke="#000000" stroke-width="2" stroke-linecap="round" stroke-linejoin="round" stroke-miterlimit="10" x1="24.06" y1="48.58" x2="14.82" y2="57.82"/>

			<line fill="none" stroke="#000000" stroke-width="2" stroke-linecap="round" stroke-linejoin="round" stroke-miterlimit="10" x1="50.81" y1="48.58" x2="41.57" y2="57.82"/>
	</g>
	<g>
		<path fill="none" stroke="#000000" stroke-width="2" stroke-linecap="round" stroke-linejoin="round" stroke-miterlimit="10" d="
			M60.56,42c5.25,0,9.5-5.05,9.5-10.29c0-5.25-4.25-9.9-9.5-9.9c-0.47,0-0.92-0.15-1.37-0.09c0.24-0.83,0.37-1.8,0.37-2.71
			c0-5.25-4.25-9.55-9.5-9.55c-1,0-1.96,0.13-2.86,0.41c-1.12-4-4.78-6.95-9.14-6.95c-5.25,0-9.5,4.25-9.5,9.5
			c0,0.39,0.03,0.76,0.07,1.14c-0.51-0.09-1.04-0.14-1.57-0.14c-5.23,0-9.46,4.22-9.5,9.43c-1.45-0.9-3.16-1.43-5-1.43
			c-5.25,0-9.5,5.05-9.5,10.29c0,5.25,4.25,10.29,9.5,10.29H60.56z"/>
		<path fill="none" stroke="#000000" stroke-width="2" stroke-linecap="round" stroke-linejoin="round" stroke-miterlimit="10" d="
			M59.23,21.53c-1.21,3.77-4.75,6.5-8.92,6.5"/>
	</g>
</g>
</svg>
