<?xml version="1.0" encoding="utf-8"?>
<!-- Generator: Adobe Illustrator 19.0.0, SVG Export Plug-In . SVG Version: 6.00 Build 0)  -->
<!DOCTYPE svg PUBLIC "-//W3C//DTD SVG 1.1//EN" "http://www.w3.org/Graphics/SVG/1.1/DTD/svg11.dtd">
<svg version="1.1" id="Layer_1" xmlns="http://www.w3.org/2000/svg" xmlns:xlink="http://www.w3.org/1999/xlink" x="0px" y="0px"
	 width="80.98px" height="75px" viewBox="0 0 80.98 75" enable-background="new 0 0 80.98 75" xml:space="preserve">
<path fill="none" stroke="#000000" stroke-width="2" stroke-miterlimit="10" d="M39.29,16.28C37.18,9.04,30.75,3.49,22.93,2.84
	c-0.37-0.03-0.72,0.16-0.9,0.48c-0.18,0.32-0.14,0.72,0.08,1.02c1.78,2.29,2.72,5.03,2.72,7.91c0,7.13-5.8,12.93-12.93,12.93
	c-2.74,0-5.36-0.86-7.59-2.48c-0.3-0.22-0.7-0.24-1.02-0.05c-0.32,0.19-0.5,0.54-0.46,0.91C3.49,29.23,6.64,34.06,11.1,37"/>
<line fill="none" stroke="#000000" stroke-width="2" stroke-linecap="round" stroke-linejoin="round" stroke-miterlimit="10" x1="47.8" y1="60.67" x2="42.19" y2="66.28"/>
<line fill="none" stroke="#000000" stroke-width="2" stroke-linecap="round" stroke-linejoin="round" stroke-miterlimit="10" x1="34.43" y1="60.67" x2="33.19" y2="61.91"/>
<g>
	<path fill="none" stroke="#000000" stroke-width="2" stroke-linecap="round" stroke-linejoin="round" stroke-miterlimit="10" d="
		M66.4,54c5.28,0,9.55-4.84,9.55-10.12c0-5.27-4.28-9.83-9.55-9.83c-0.47,0-0.92-0.1-1.38-0.03c0.24-0.83,0.37-1.78,0.37-2.69
		c0-5.27-4.28-9.59-9.55-9.59c-1,0-1.96,0.14-2.87,0.42c-1.13-4.02-4.81-6.98-9.19-6.98c-5.27,0-9.55,4.27-9.55,9.55
		c0,0.39,0.03,0.77,0.08,1.14c-0.52-0.09-1.04-0.14-1.58-0.14c-5.25,0-9.51,4.24-9.55,9.48c-1.46-0.91-3.18-1.44-5.03-1.44
		c-5.27,0-9.55,4.84-9.55,10.12c0,5.27,4.28,10.12,9.55,10.12H66.4z"/>
	<path fill="none" stroke="#000000" stroke-width="2" stroke-linecap="round" stroke-linejoin="round" stroke-miterlimit="10" d="
		M65.07,33.88c-1.22,3.79-4.77,6.53-8.97,6.53"/>
</g>
</svg>
