<?xml version="1.0" encoding="utf-8"?>
<!-- Generator: Adobe Illustrator 19.0.0, SVG Export Plug-In . SVG Version: 6.00 Build 0)  -->
<!DOCTYPE svg PUBLIC "-//W3C//DTD SVG 1.1//EN" "http://www.w3.org/Graphics/SVG/1.1/DTD/svg11.dtd">
<svg version="1.1" id="Layer_1" xmlns="http://www.w3.org/2000/svg" xmlns:xlink="http://www.w3.org/1999/xlink" x="0px" y="0px"
	 width="80.98px" height="75px" viewBox="0 0 80.98 75" enable-background="new 0 0 80.98 75" xml:space="preserve">
<line fill="none" stroke="#000000" stroke-width="2" stroke-linecap="round" stroke-linejoin="round" stroke-miterlimit="10" x1="49.8" y1="60.67" x2="44.19" y2="66.28"/>
<line fill="none" stroke="#000000" stroke-width="2" stroke-linecap="round" stroke-linejoin="round" stroke-miterlimit="10" x1="36.43" y1="60.67" x2="35.19" y2="61.91"/>
<path fill="none" stroke="#000000" stroke-width="2" stroke-miterlimit="10" d="M16.29,34.31c-2.14-2.3-3.44-5.39-3.44-8.78
	c0-7.14,5.79-12.92,12.92-12.92c5.02,0,9.37,2.86,11.51,7.05"/>
<line fill="none" stroke="#000000" stroke-width="2" stroke-linecap="round" stroke-linejoin="round" stroke-miterlimit="10" x1="9.45" y1="15.78" x2="5.68" y2="13.52"/>
<line fill="none" stroke="#000000" stroke-width="2" stroke-linecap="round" stroke-linejoin="round" stroke-miterlimit="10" x1="21.22" y1="6.78" x2="20.21" y2="2.77"/>
<line fill="none" stroke="#000000" stroke-width="2" stroke-linecap="round" stroke-linejoin="round" stroke-miterlimit="10" x1="35.95" y1="8.83" x2="37.94" y2="5.51"/>
<line fill="none" stroke="#000000" stroke-width="2" stroke-linecap="round" stroke-linejoin="round" stroke-miterlimit="10" x1="6.75" y1="30" x2="2.95" y2="30.96"/>
<path fill="none" stroke="#000000" stroke-width="2" stroke-linecap="round" stroke-linejoin="round" stroke-miterlimit="10" d="
	M68.4,53c5.28,0,9.55-4.34,9.55-9.62c0-5.27-4.28-9.58-9.55-9.58c-0.47,0-0.92,0.03-1.38,0.09c0.24-0.83,0.37-1.72,0.37-2.63
	c0-5.27-4.28-9.55-9.55-9.55c-1,0-1.96,0.15-2.87,0.44c-1.13-4.02-4.81-6.98-9.19-6.98c-5.27,0-9.55,4.28-9.55,9.55
	c0,0.39,0.03,0.77,0.08,1.14c-0.52-0.09-1.04-0.14-1.58-0.14c-5.25,0-9.51,4.24-9.55,9.48c-1.46-0.91-3.18-1.44-5.03-1.44
	c-5.27,0-9.55,4.34-9.55,9.62c0,5.27,4.28,9.62,9.55,9.62H68.4z"/>
<path fill="none" stroke="#000000" stroke-width="2" stroke-linecap="round" stroke-linejoin="round" stroke-miterlimit="10" d="
	M67.07,33.88c-1.22,3.79-4.77,6.53-8.97,6.53"/>
</svg>
