<?xml version="1.0" encoding="utf-8"?>
<!-- Generator: Adobe Illustrator 19.0.0, SVG Export Plug-In . SVG Version: 6.00 Build 0)  -->
<!DOCTYPE svg PUBLIC "-//W3C//DTD SVG 1.1//EN" "http://www.w3.org/Graphics/SVG/1.1/DTD/svg11.dtd">
<svg version="1.1" id="Layer_1" xmlns="http://www.w3.org/2000/svg" xmlns:xlink="http://www.w3.org/1999/xlink" x="0px" y="0px"
	 width="81px" height="75px" viewBox="0 0 81 75" enable-background="new 0 0 81 75" xml:space="preserve">
<path fill="none" stroke="#000000" stroke-width="2" stroke-linecap="round" stroke-linejoin="round" stroke-miterlimit="10" d="
	M40.36,16.52C38.33,9.16,31.84,3.5,23.93,2.84c-0.37-0.03-0.72,0.16-0.9,0.48c-0.18,0.32-0.14,0.72,0.08,1.02
	c1.78,2.29,2.72,5.03,2.72,7.91c0,7.13-5.8,12.93-12.93,12.93c-2.74,0-5.36-0.86-7.59-2.48c-0.3-0.22-0.7-0.24-1.02-0.05
	c-0.32,0.19-0.5,0.54-0.46,0.91c0.66,5.76,3.9,10.66,8.49,13.59"/>
<g>
	<path fill="none" stroke="#000000" stroke-width="2" stroke-linecap="round" stroke-linejoin="round" stroke-miterlimit="10" d="
		M67.45,53.83c5.28,0,9.55-4.53,9.55-9.8c0-5.28-4.28-9.67-9.55-9.67c-0.47,0-0.92-0.02-1.38,0.05c0.24-0.83,0.37-1.74,0.37-2.65
		c0-5.27-4.28-9.57-9.55-9.57c-1,0-1.96,0.15-2.87,0.43c-1.13-4.02-4.81-6.98-9.19-6.98c-5.27,0-9.55,4.28-9.55,9.55
		c0,0.39,0.03,0.77,0.08,1.14c-0.52-0.09-1.04-0.14-1.58-0.14c-5.25,0-9.51,4.24-9.55,9.48c-1.46-0.91-3.18-1.44-5.03-1.44
		c-5.27,0-9.55,4.53-9.55,9.8c0,5.28,4.28,9.8,9.55,9.8H67.45z"/>
	<path fill="none" stroke="#000000" stroke-width="2" stroke-linecap="round" stroke-linejoin="round" stroke-miterlimit="10" d="
		M66.11,34.35c-1.22,3.79-4.77,6.53-8.97,6.53"/>
</g>
</svg>
