<?xml version="1.0" encoding="utf-8"?>
<!-- Generator: Adobe Illustrator 19.0.0, SVG Export Plug-In . SVG Version: 6.00 Build 0)  -->
<!DOCTYPE svg PUBLIC "-//W3C//DTD SVG 1.1//EN" "http://www.w3.org/Graphics/SVG/1.1/DTD/svg11.dtd">
<svg version="1.1" id="Layer_1" xmlns="http://www.w3.org/2000/svg" xmlns:xlink="http://www.w3.org/1999/xlink" x="0px" y="0px"
	 width="76px" height="75px" viewBox="0 0 76 75" enable-background="new 0 0 76 75" xml:space="preserve">
<g>
	
		<line fill="none" stroke="#000000" stroke-width="2" stroke-linecap="round" stroke-linejoin="round" stroke-miterlimit="10" x1="47.83" y1="58.79" x2="38.59" y2="68.03"/>
	
		<line fill="none" stroke="#000000" stroke-width="2" stroke-linecap="round" stroke-linejoin="round" stroke-miterlimit="10" x1="63.16" y1="58.79" x2="53.92" y2="68.03"/>
	
		<line fill="none" stroke="#000000" stroke-width="2" stroke-linecap="round" stroke-linejoin="round" stroke-miterlimit="10" x1="32.5" y1="58.79" x2="23.26" y2="68.03"/>
	
		<line fill="none" stroke="#000000" stroke-width="2" stroke-linecap="round" stroke-linejoin="round" stroke-miterlimit="10" x1="17.16" y1="58.79" x2="7.92" y2="68.03"/>
</g>
<path fill="none" stroke="#000000" stroke-width="2" stroke-linecap="round" stroke-linejoin="round" stroke-miterlimit="10" d="
	M64.09,43.94C69.09,43.33,73,38.29,73,33.15c0-5.48-4.44-10.39-9.93-10.39c-0.49,0-0.96-0.19-1.43-0.12
	c0.25-0.87,0.39-1.89,0.39-2.84c0-5.48-4.44-9.99-9.93-9.99c-1.04,0-2.04,0.13-2.99,0.43c-1.17-4.18-5-7.26-9.55-7.26
	c-5.48,0-9.93,4.44-9.93,9.92c0,0.4,0.03,0.8,0.08,1.19c-0.54-0.09-1.08-0.15-1.64-0.15c-5.46,0-9.88,4.41-9.92,9.85
	c-1.52-0.94-3.3-1.5-5.23-1.5C7.44,22.29,3,27.66,3,33.15S7.44,44,12.93,44H17"/>
<path fill="none" stroke="#000000" stroke-width="2" stroke-linecap="round" stroke-linejoin="round" stroke-miterlimit="10" d="
	M61.68,22.42c-0.92,2.85-3.11,5.13-5.9,6.18"/>
<g>
	<path fill="none" stroke="#000000" stroke-width="2" stroke-linecap="round" stroke-linejoin="round" stroke-miterlimit="10" d="
		M57.52,51c3.7,0,6.69-5.04,6.69-8.74c0-3.7-3-7.71-6.69-7.71c-0.33,0-0.65-0.48-0.96-0.43c0.17-0.58,0.26-1.45,0.26-2.09
		c0-3.7-3-6.82-6.69-6.82c-0.7,0-1.38,0.05-2.01,0.25c-0.79-2.82-3.37-4.92-6.44-4.92c-3.7,0-6.69,2.98-6.69,6.67
		c0,0.27,0.02,0.53,0.05,0.79c-0.36-0.06-0.73-0.1-1.11-0.1c-3.68,0-6.66,2.97-6.69,6.64c-1.02-0.64-2.23-1.01-3.52-1.01
		c-3.7,0-6.69,5.04-6.69,8.74c0,3.7,3,8.74,6.69,8.74H57.52z"/>
</g>
</svg>
