<?xml version="1.0" encoding="utf-8"?>
<!-- Generator: Adobe Illustrator 19.0.0, SVG Export Plug-In . SVG Version: 6.00 Build 0)  -->
<!DOCTYPE svg PUBLIC "-//W3C//DTD SVG 1.1//EN" "http://www.w3.org/Graphics/SVG/1.1/DTD/svg11.dtd">
<svg version="1.1" id="Layer_1" xmlns="http://www.w3.org/2000/svg" xmlns:xlink="http://www.w3.org/1999/xlink" x="0px" y="0px"
	 width="81.22px" height="75px" viewBox="0 0 81.22 75" enable-background="new 0 0 81.22 75" xml:space="preserve">
<path fill="none" stroke="#000000" stroke-width="2" stroke-miterlimit="10" d="M39.36,16.52C37.33,9.16,30.84,3.5,22.93,2.84
	c-0.37-0.03-0.72,0.16-0.9,0.48c-0.18,0.32-0.14,0.72,0.08,1.02c1.78,2.29,2.72,5.03,2.72,7.91c0,7.13-5.8,12.93-12.93,12.93
	c-2.74,0-5.36-0.86-7.59-2.48c-0.3-0.22-0.7-0.24-1.02-0.05c-0.32,0.19-0.5,0.54-0.46,0.91c0.67,5.82,3.97,10.75,8.62,13.67"/>
<g>
	
		<line fill="none" stroke="#000000" stroke-width="2" stroke-linecap="round" stroke-linejoin="round" stroke-miterlimit="10" x1="34.9" y1="61.37" x2="31.66" y2="64.61"/>
	
		<line fill="none" stroke="#000000" stroke-width="2" stroke-linecap="round" stroke-linejoin="round" stroke-miterlimit="10" x1="48.78" y1="61.37" x2="45.54" y2="64.61"/>
	
		<line fill="none" stroke="#000000" stroke-width="2" stroke-linecap="round" stroke-linejoin="round" stroke-miterlimit="10" x1="62.65" y1="61.37" x2="59.41" y2="64.61"/>
	
		<line fill="none" stroke="#000000" stroke-width="2" stroke-linecap="round" stroke-linejoin="round" stroke-miterlimit="10" x1="21.03" y1="61.37" x2="17.79" y2="64.61"/>
</g>
<g>
	<path fill="none" stroke="#000000" stroke-width="2" stroke-linecap="round" stroke-linejoin="round" stroke-miterlimit="10" d="
		M66.65,54.41c5.28,0,9.55-5.03,9.55-10.3c0-5.28-4.28-9.93-9.55-9.93c-0.47,0-0.92-0.14-1.38-0.08c0.24-0.83,0.37-1.81,0.37-2.72
		c0-5.27-4.28-9.6-9.55-9.6c-1,0-1.96,0.13-2.87,0.42c-1.13-4.02-4.81-6.99-9.19-6.99c-5.27,0-9.55,4.27-9.55,9.55
		c0,0.39,0.03,0.76,0.08,1.14c-0.52-0.09-1.04-0.14-1.58-0.14c-5.25,0-9.51,4.24-9.55,9.48c-1.46-0.91-3.18-1.44-5.03-1.44
		c-5.27,0-9.55,5.03-9.55,10.3c0,5.27,4.28,10.3,9.55,10.3H66.65z"/>
	<path fill="none" stroke="#000000" stroke-width="2" stroke-linecap="round" stroke-linejoin="round" stroke-miterlimit="10" d="
		M65.31,33.93c-1.22,3.79-4.77,6.53-8.97,6.53"/>
</g>
</svg>
