<?xml version="1.0" encoding="utf-8"?>
<!-- Generator: Adobe Illustrator 19.0.0, SVG Export Plug-In . SVG Version: 6.00 Build 0)  -->
<!DOCTYPE svg PUBLIC "-//W3C//DTD SVG 1.1//EN" "http://www.w3.org/Graphics/SVG/1.1/DTD/svg11.dtd">
<svg version="1.1" id="Layer_1" xmlns="http://www.w3.org/2000/svg" xmlns:xlink="http://www.w3.org/1999/xlink" x="0px" y="0px"
	 width="81.22px" height="75px" viewBox="0 0 81.22 75" enable-background="new 0 0 81.22 75" xml:space="preserve">
<g>
	
		<line fill="none" stroke="#000000" stroke-width="2" stroke-linecap="round" stroke-linejoin="round" stroke-miterlimit="10" x1="36.9" y1="61.37" x2="33.66" y2="64.61"/>
	
		<line fill="none" stroke="#000000" stroke-width="2" stroke-linecap="round" stroke-linejoin="round" stroke-miterlimit="10" x1="50.78" y1="61.37" x2="47.54" y2="64.61"/>
	
		<line fill="none" stroke="#000000" stroke-width="2" stroke-linecap="round" stroke-linejoin="round" stroke-miterlimit="10" x1="64.65" y1="61.37" x2="61.41" y2="64.61"/>
	
		<line fill="none" stroke="#000000" stroke-width="2" stroke-linecap="round" stroke-linejoin="round" stroke-miterlimit="10" x1="23.03" y1="61.37" x2="19.79" y2="64.61"/>
</g>
<path fill="none" stroke="#000000" stroke-width="2" stroke-miterlimit="10" d="M16.67,34.5c-2.21-2.32-3.57-5.46-3.57-8.92
	c0-7.14,5.79-12.92,12.92-12.92c5.06,0,9.44,2.91,11.56,7.14"/>
<line fill="none" stroke="#000000" stroke-width="2" stroke-linecap="round" stroke-linejoin="round" stroke-miterlimit="10" x1="9.69" y1="15.83" x2="5.92" y2="13.57"/>
<line fill="none" stroke="#000000" stroke-width="2" stroke-linecap="round" stroke-linejoin="round" stroke-miterlimit="10" x1="21.47" y1="6.83" x2="20.46" y2="2.82"/>
<line fill="none" stroke="#000000" stroke-width="2" stroke-linecap="round" stroke-linejoin="round" stroke-miterlimit="10" x1="36.19" y1="8.88" x2="38.18" y2="5.56"/>
<line fill="none" stroke="#000000" stroke-width="2" stroke-linecap="round" stroke-linejoin="round" stroke-miterlimit="10" x1="6.99" y1="30.05" x2="3.2" y2="31"/>
<g>
	<path fill="none" stroke="#000000" stroke-width="2" stroke-linecap="round" stroke-linejoin="round" stroke-miterlimit="10" d="
		M68.65,53.41c5.28,0,9.55-4.53,9.55-9.8c0-5.28-4.28-9.68-9.55-9.68c-0.47,0-0.92-0.02-1.38,0.05c0.24-0.83,0.37-1.74,0.37-2.65
		c0-5.27-4.28-9.57-9.55-9.57c-1,0-1.96,0.15-2.87,0.43c-1.13-4.02-4.81-6.98-9.19-6.98c-5.27,0-9.55,4.27-9.55,9.55
		c0,0.39,0.03,0.77,0.08,1.14c-0.52-0.09-1.04-0.14-1.58-0.14c-5.25,0-9.51,4.24-9.55,9.48c-1.46-0.91-3.18-1.44-5.03-1.44
		c-5.27,0-9.55,4.53-9.55,9.8c0,5.27,4.28,9.8,9.55,9.8H68.65z"/>
	<path fill="none" stroke="#000000" stroke-width="2" stroke-linecap="round" stroke-linejoin="round" stroke-miterlimit="10" d="
		M67.31,33.93c-1.22,3.79-4.77,6.53-8.97,6.53"/>
</g>
</svg>
