<?xml version="1.0" encoding="utf-8"?>
<!-- Generator: Adobe Illustrator 19.0.0, SVG Export Plug-In . SVG Version: 6.00 Build 0)  -->
<!DOCTYPE svg PUBLIC "-//W3C//DTD SVG 1.1//EN" "http://www.w3.org/Graphics/SVG/1.1/DTD/svg11.dtd">
<svg version="1.1" xmlns="http://www.w3.org/2000/svg" xmlns:xlink="http://www.w3.org/1999/xlink" x="0px" y="0px" width="71px"
	 height="75px" viewBox="0 0 71 75" enable-background="new 0 0 71 75" xml:space="preserve">
<g id="Layer_2" display="none">
	<circle display="inline" fill="#215987" cx="20.31" cy="26.17" r="12.92"/>
	
		<line display="inline" fill="none" stroke="#215987" stroke-width="5" stroke-linecap="round" stroke-linejoin="round" stroke-miterlimit="10" x1="3.99" y1="16.41" x2="0.22" y2="14.16"/>
	
		<line display="inline" fill="none" stroke="#215987" stroke-width="5" stroke-linecap="round" stroke-linejoin="round" stroke-miterlimit="10" x1="15.77" y1="7.42" x2="14.76" y2="3.41"/>
	
		<line display="inline" fill="none" stroke="#215987" stroke-width="5" stroke-linecap="round" stroke-linejoin="round" stroke-miterlimit="10" x1="30.5" y1="9.47" x2="32.48" y2="6.15"/>
	
		<line display="inline" fill="none" stroke="#215987" stroke-width="5" stroke-linecap="round" stroke-linejoin="round" stroke-miterlimit="10" x1="1.29" y1="30.64" x2="-2.5" y2="31.59"/>
	<g display="inline">
		
			<path fill="#FFFFFF" stroke="#215987" stroke-width="5" stroke-linecap="round" stroke-linejoin="round" stroke-miterlimit="10" d="
			M62.95,52.5c5.28,0,9.55-3.78,9.55-9.05c0-5.28-4.28-9.3-9.55-9.3c-0.47,0-0.92,0.17-1.38,0.24c0.24-0.83,0.37-1.65,0.37-2.56
			c0-5.27-4.28-9.52-9.55-9.52c-1,0-1.96,0.17-2.87,0.46c-1.13-4.02-4.81-6.97-9.19-6.97c-5.27,0-9.55,4.28-9.55,9.56
			c0,0.39,0.03,0.77,0.08,1.14c-0.52-0.09-1.04-0.14-1.58-0.14c-5.25,0-9.51,4.24-9.55,9.48c-1.46-0.91-3.18-1.44-5.03-1.44
			c-5.27,0-9.55,3.78-9.55,9.05c0,5.28,4.28,9.05,9.55,9.05H62.95z"/>
		<path fill="none" stroke="#215987" stroke-width="5" stroke-linecap="round" stroke-linejoin="round" stroke-miterlimit="10" d="
			M61.61,34.52c-1.22,3.79-4.77,6.53-8.97,6.53"/>
	</g>
</g>
<g id="Layer_1">
	
		<path fill-rule="evenodd" clip-rule="evenodd" fill="none" stroke="#000000" stroke-width="2" stroke-linecap="round" stroke-linejoin="round" stroke-miterlimit="10" d="
		M13.22,35.07v0.52c0,14.31,12.53,26.76,26.92,26.76c1.94,0,3.83-0.21,5.65-0.61c-5.99-1.31-11.2-4.67-14.86-9.31
		c1.47,0.32,3.01,0.49,4.58,0.49c11.84,0,22.28-8.73,22.28-20.57v-1.57c0-14.2-12.37-26.57-26.57-26.57c-1.91,0-3.78,0.21-5.57,0.6
		c5.97,1.32,11.17,4.72,14.78,9.39c-1.58-0.37-3.22-0.57-4.92-0.57C23.66,13.65,13.22,23.24,13.22,35.07z"/>
	
		<path fill-rule="evenodd" clip-rule="evenodd" fill="none" stroke="#000000" stroke-width="2" stroke-linecap="round" stroke-linejoin="round" stroke-miterlimit="10" d="
		M3.64,33.79c0-9.78,4.62-18.48,11.81-24.03"/>
	
		<path fill-rule="evenodd" clip-rule="evenodd" fill="none" stroke="#000000" stroke-width="2" stroke-linecap="round" stroke-linejoin="round" stroke-miterlimit="10" d="
		M67.36,33.79c0,9.57-4.43,18.1-11.34,23.67"/>
</g>
</svg>
