<?xml version="1.0" encoding="utf-8"?>
<!-- Generator: Adobe Illustrator 19.0.0, SVG Export Plug-In . SVG Version: 6.00 Build 0)  -->
<!DOCTYPE svg PUBLIC "-//W3C//DTD SVG 1.1//EN" "http://www.w3.org/Graphics/SVG/1.1/DTD/svg11.dtd">
<svg version="1.1" id="Layer_1" xmlns="http://www.w3.org/2000/svg" xmlns:xlink="http://www.w3.org/1999/xlink" x="0px" y="0px"
	 width="67.65px" height="75px" viewBox="0 0 67.65 75" enable-background="new 0 0 67.65 75" xml:space="preserve">
<g>
	<path fill="none" stroke="#000000" stroke-width="2" stroke-linecap="round" stroke-linejoin="round" stroke-miterlimit="10" d="
		M40.71,32c-19.44,0-34.9-4.74-35.05-4.79c-0.65-0.2-1.05-0.86-0.93-1.53c0.12-0.65,0.68-1.11,1.33-1.11c0.03,0,0.05,0,0.08,0
		c3.77,0.21,7.19,0.32,10.48,0.32c8.75,0,15.98-0.73,22.78-2.31c7.88-1.83,7.04-6.93,7-7.14c-0.01-0.08-0.02-0.16-0.02-0.24
		c0-1.82-1.48-3.3-3.3-3.3c-1.87,0-3.45,1.51-3.45,3.3c0,0.75-0.6,1.35-1.35,1.35c-0.75,0-1.35-0.6-1.35-1.35
		c0-6.42,5.22-11.64,11.64-11.64c6.4,0,11.6,5.18,11.64,11.57c0.07,0.8,0.45,6.56-3.68,11.19C53.16,30.09,47.84,32,40.71,32z"/>
	<path fill="none" stroke="#000000" stroke-width="2" stroke-linecap="round" stroke-linejoin="round" stroke-miterlimit="10" d="
		M36.64,64.57c-0.33,0-0.67-0.02-1-0.05c-2.65-0.26-5.02-1.53-6.67-3.55c-1.58-1.95-2.31-4.38-2.05-6.85
		c0.07-0.69,0.66-1.21,1.34-1.21c0.05,0,0.1,0,0.14,0.01c0.74,0.08,1.28,0.74,1.2,1.48c-0.06,0.56,0.12,1.12,0.5,1.59
		c0.44,0.54,1.1,0.9,1.8,0.97c0.09,0.01,0.17,0.01,0.26,0.01c1.26,0,2.31-0.9,2.43-2.09c0.01-0.08,0.03-0.17,0.05-0.25
		c0.1-0.38,0.88-3.89-4.93-5.82c-7.35-2.43-15.63-3.74-26.82-4.24C2.22,44.54,1.66,44,1.61,43.32c-0.05-0.68,0.42-1.29,1.09-1.43
		c0.31-0.06,7.61-1.46,18.1-1.46c3.69,0,7.34,0.18,10.87,0.53c5.97,0.59,10.23,2.61,12.67,6c2.88,4,2.14,8.47,2,9.17
		C45.79,60.95,41.63,64.57,36.64,64.57z"/>
	<path fill="none" stroke="#000000" stroke-width="2" stroke-linecap="round" stroke-linejoin="round" stroke-miterlimit="10" d="
		M53.25,42.4c-4.65,0-10.56-1.36-17.56-4.04c-0.61-0.24-0.97-0.25-0.84-0.9c0.13-0.63,0.68-0.46,1.32-0.46c0.01,0,0.02,0,0.04,0
		c0.01,0,1.52-0.59,3.75-0.59c4.28,0,10.34-0.45,14.93-1.09c6.54-0.92,8.47-7.46,8.49-7.53c0.16-0.59,0.7-0.8,1.3-0.8
		c0.01,0,0.03,0,0.04,0c0.62,0,1.15,0.11,1.28,0.71c0.06,0.26,1.34,6.29-2.22,10.71C61.55,41.18,58.01,42.4,53.25,42.4z"/>
</g>
</svg>
